<svg width="282" height="50" viewBox="0 0 282 50" fill="none" xmlns="http://www.w3.org/2000/svg">
<g clip-path="url(#clip0_271_1372)">
<path d="M74.399 1.0228H78.2054V2.58332H77.151L78.0051 10.3648H79.1544V11.9254H74.9367V10.3648H76.2231L75.4639 3.09998L72.9755 11.9254H70.93L68.5892 3.16324L67.7457 10.3648H69.1164V11.9254H64.8882V10.3648H65.9532L66.8916 2.58332H65.8267V1.0228H69.7174L71.9949 9.76383L74.3779 1.0228H74.399Z" fill="#009DE0"/>
<path d="M82.1067 7.17002H80.5251C80.3669 6.86424 80.2826 6.52683 80.2826 6.16833C80.2826 5.1561 81.221 4.40747 83.256 4.40747C85.4386 4.40747 86.2084 5.05066 86.2084 7.14893V10.0064C86.2084 10.3122 86.3665 10.4387 86.6301 10.4387C86.7883 10.4387 86.9359 10.4281 87.0624 10.386V11.9149C86.7566 11.9781 86.3665 12.0097 86.008 12.0097C85.0696 12.0097 84.5846 11.5564 84.4897 10.8815C84.089 11.4825 83.2771 12.0941 82.0751 12.0941C80.7043 12.0941 79.8608 11.2928 79.8608 9.98529C79.8608 8.37204 81.2632 7.85538 83.4458 7.69722L84.3631 7.60233V6.11561C84.1206 6.05235 83.5723 6.02071 83.2455 6.02071C82.7288 6.02071 82.5179 6.0418 82.0962 6.11561V7.17002H82.1067ZM82.6761 10.6074C83.3509 10.6074 83.9835 10.2805 84.3737 9.93257V8.80435L83.4564 8.92033C82.17 9.06795 81.7904 9.32101 81.7904 9.85876C81.7904 10.3543 82.0962 10.6179 82.6761 10.6179V10.6074Z" fill="#3B1C13"/>
<path d="M87.9481 10.3754H88.8971V6.13668H87.9798V4.57616H90.4998V5.45132C90.8688 4.99792 91.512 4.418 92.9882 4.418C94.6647 4.418 95.4766 5.41969 95.4766 7.31762V10.3859H96.415V11.9359H92.6191V10.3859H93.6841V7.51796C93.6841 6.63226 93.3783 6.1156 92.2923 6.1156C91.6596 6.1156 91.0059 6.42137 90.6896 6.66389V10.3965H91.7229V11.9465H87.9481V10.3965V10.3754Z" fill="#3B1C13"/>
<path d="M99.3252 7.17002H97.7436C97.5854 6.86424 97.5011 6.52683 97.5011 6.16833C97.5011 5.1561 98.4395 4.40747 100.474 4.40747C102.657 4.40747 103.427 5.05066 103.427 7.14893V10.0064C103.427 10.3122 103.585 10.4387 103.849 10.4387C104.007 10.4387 104.154 10.4281 104.281 10.386V11.9149C103.975 11.9781 103.585 12.0097 103.226 12.0097C102.288 12.0097 101.803 11.5564 101.708 10.8815C101.307 11.4825 100.496 12.0941 99.2935 12.0941C97.9228 12.0941 97.0793 11.2928 97.0793 9.98529C97.0793 8.37204 98.4817 7.85538 100.664 7.69722L101.582 7.60233V6.11561C101.339 6.05235 100.791 6.02071 100.464 6.02071C99.9473 6.02071 99.7364 6.0418 99.3146 6.11561V7.17002H99.3252ZM99.8946 10.6074C100.569 10.6074 101.202 10.2805 101.592 9.93257V8.80435L100.675 8.92033C99.3884 9.06795 99.0089 9.32101 99.0089 9.85876C99.0089 10.3543 99.3146 10.6179 99.8946 10.6179V10.6074Z" fill="#3B1C13"/>
<path d="M111.145 5.9258C111.409 6.25266 111.567 6.83259 111.567 7.39143C111.567 9.08902 110.291 9.97472 108.467 9.97472C108.014 9.97472 107.518 9.922 107.191 9.81656L107.128 10.7972H109.585C111.113 10.7972 112.073 11.4931 112.073 12.8638C112.073 14.4981 110.618 15.5736 108.203 15.5736C105.789 15.5736 104.892 14.8039 104.892 13.6546C104.892 12.8111 105.62 12.2839 106.137 12.1679C105.747 11.9781 105.504 11.5247 105.504 11.1135C105.504 10.407 105.989 9.93255 106.411 9.61622C105.609 9.18392 105.156 8.36148 105.156 7.29653C105.156 5.62002 106.274 4.40745 108.499 4.40745C109.205 4.40745 110.027 4.64997 110.439 4.95574C110.955 4.16494 111.693 3.94351 112.474 3.98569L112.505 5.75709L111.166 5.91525L111.145 5.9258ZM106.643 13.2223C106.643 13.7917 107.012 14.1924 108.256 14.1924C109.405 14.1924 110.175 13.8339 110.175 13.159C110.175 12.7373 109.954 12.3999 109.194 12.3999H107.128C106.875 12.5897 106.643 12.8533 106.643 13.2223ZM109.869 7.32816C109.869 6.53735 109.437 5.98906 108.414 5.98906C107.328 5.98906 106.917 6.53735 106.917 7.32816C106.917 8.06625 107.275 8.61454 108.414 8.61454C109.479 8.61454 109.869 8.08733 109.869 7.32816Z" fill="#3B1C13"/>
<path d="M118.937 9.87985L119.517 11.3033C118.747 11.7883 117.672 12.1046 116.712 12.1046C114.161 12.1046 113.117 10.4914 113.117 8.24551C113.117 6.14724 114.245 4.40747 116.501 4.40747C118.758 4.40747 119.601 5.99963 119.601 7.58124C119.601 7.98191 119.549 8.5302 119.475 8.83598H115.025C115.057 9.8693 115.605 10.5019 116.733 10.5019C117.503 10.5019 118.262 10.2805 118.948 9.8693L118.937 9.87985ZM117.841 7.48634C117.862 7.39144 117.862 7.30709 117.862 7.26492C117.862 6.35812 117.25 5.90473 116.501 5.90473C115.489 5.90473 115.099 6.61118 115.036 7.48634H117.841Z" fill="#3B1C13"/>
<path d="M120.719 10.3754H121.668V6.13668H120.751V4.57616H123.271V5.43023C123.577 4.91357 124.283 4.418 125.306 4.418C126.329 4.418 126.866 4.83976 127.256 5.48295C127.647 4.93466 128.385 4.418 129.576 4.418C131.242 4.418 131.885 5.38805 131.885 7.18055V10.3859H132.824V11.9359H129.334V10.3859H130.093V7.31762C130.093 6.55845 129.829 6.10505 129.028 6.10505C128.448 6.10505 127.942 6.36865 127.689 6.65334V10.3859H128.469V11.9359H125.127V10.3859H125.917V6.80096C125.728 6.40029 125.348 6.10505 124.757 6.10505C124.125 6.10505 123.756 6.34757 123.471 6.6428V10.3859H124.23V11.9359H120.73V10.3859L120.719 10.3754Z" fill="#3B1C13"/>
<path d="M139.477 9.87985L140.057 11.3033C139.287 11.7883 138.212 12.1046 137.252 12.1046C134.701 12.1046 133.657 10.4914 133.657 8.24551C133.657 6.14724 134.785 4.40747 137.041 4.40747C139.298 4.40747 140.141 5.99963 140.141 7.58124C140.141 7.98191 140.089 8.5302 140.015 8.83598H135.565C135.597 9.8693 136.145 10.5019 137.273 10.5019C138.043 10.5019 138.802 10.2805 139.488 9.8693L139.477 9.87985ZM138.38 7.48634C138.402 7.39144 138.402 7.30709 138.402 7.26492C138.402 6.35812 137.79 5.90473 137.041 5.90473C136.029 5.90473 135.639 6.61118 135.576 7.48634H138.38Z" fill="#3B1C13"/>
<path d="M141.248 10.3754H142.197V6.13668H141.28V4.57616H143.8V5.45132C144.169 4.99792 144.812 4.418 146.288 4.418C147.965 4.418 148.777 5.41969 148.777 7.31762V10.3859H149.715V11.9359H145.919V10.3859H146.984V7.51796C146.984 6.63226 146.679 6.1156 145.593 6.1156C144.96 6.1156 144.306 6.42137 143.99 6.66389V10.3965H145.023V11.9465H141.248V10.3965V10.3754Z" fill="#3B1C13"/>
<path d="M153.174 9.55296C153.174 10.154 153.511 10.407 154.017 10.407C154.281 10.407 154.798 10.3543 155.135 10.291L155.188 11.8727C154.798 11.9992 154.007 12.0941 153.48 12.0941C151.982 12.0941 151.402 11.1135 151.402 9.80602V6.12614H150.063V4.72378L151.402 4.56562V2.76258L153.195 2.46735V4.56562H154.935V6.12614H153.195V9.54242L153.174 9.55296Z" fill="#3B1C13"/>
<path d="M72.9545 25.5378V29.2282H65.3205V27.6677H66.4171V19.8861H65.3205V18.3256H69.5487V19.8861H68.3256V27.6677H71.2463V25.5378H72.9545Z" fill="#009DE0"/>
<path d="M80.873 25.5378C80.873 27.8258 79.9346 29.4074 77.3197 29.4074C74.7048 29.4074 73.8296 27.8153 73.8296 25.5694C73.8296 23.3235 74.7786 21.7103 77.383 21.7103C79.9873 21.7103 80.873 23.2919 80.873 25.5378ZM78.9857 25.5694C78.9857 24.0511 78.585 23.3762 77.3408 23.3762C76.0966 23.3762 75.7275 24.051 75.7275 25.5378C75.7275 27.0245 76.1598 27.752 77.3724 27.752C78.585 27.752 78.9857 27.0456 78.9857 25.5694Z" fill="#3B1C13"/>
<path d="M87.9587 23.2286C88.2223 23.5555 88.3804 24.1354 88.3804 24.6943C88.3804 26.3918 87.1046 27.2775 85.2805 27.2775C84.8271 27.2775 84.3315 27.2248 84.0046 27.1194L83.9414 28.1H86.3981C87.927 28.1 88.8866 28.7959 88.8866 30.1666C88.8866 31.801 87.4315 32.8765 85.0169 32.8765C82.6023 32.8765 81.706 32.1067 81.706 30.9574C81.706 30.1139 82.4336 29.5867 82.9502 29.4707C82.5601 29.2809 82.3176 28.8275 82.3176 28.4163C82.3176 27.7099 82.8026 27.2354 83.2244 26.9191C82.423 26.4867 81.9696 25.6643 81.9696 24.5994C81.9696 22.9228 83.0873 21.7103 85.3121 21.7103C86.0186 21.7103 86.841 21.9528 87.2522 22.2586C87.7689 21.4678 88.507 21.2463 89.2872 21.2885L89.3189 23.0599L87.9798 23.2181L87.9587 23.2286ZM83.4564 30.5251C83.4564 31.0945 83.8254 31.4952 85.0696 31.4952C86.2189 31.4952 86.9886 31.1367 86.9886 30.4619C86.9886 30.0401 86.7672 29.7027 86.008 29.7027H83.9414C83.6883 29.8925 83.4564 30.1561 83.4564 30.5251ZM86.6828 24.631C86.6828 23.8402 86.2505 23.2919 85.2278 23.2919C84.1417 23.2919 83.7305 23.8402 83.7305 24.631C83.7305 25.3691 84.089 25.9174 85.2278 25.9174C86.2927 25.9174 86.6828 25.3902 86.6828 24.631Z" fill="#3B1C13"/>
<path d="M89.8988 27.6782H91.4488V23.429H89.8988V21.8684H93.2413V27.6782H94.6752V29.2282H89.8988V27.6782ZM91.143 19.3168C91.143 18.5471 91.628 18.1991 92.2712 18.1991C92.8406 18.1991 93.3889 18.5365 93.3889 19.3168C93.3889 20.097 92.8406 20.4028 92.2712 20.4028C91.628 20.4028 91.143 20.1076 91.143 19.3168Z" fill="#3B1C13"/>
<path d="M101.118 24.1565H99.6942L99.4833 23.1759C99.1881 23.0599 98.8718 22.9967 98.4711 22.9967C97.8279 22.9967 97.5327 23.3657 97.5327 23.7664C97.5327 24.1249 97.6803 24.3779 98.2075 24.5572L99.3674 24.9157C100.706 25.3374 101.381 26.0017 101.381 27.1405C101.381 28.2792 100.622 29.3969 98.334 29.3969C97.2058 29.3969 96.3517 29.2177 95.5609 28.9013L95.4344 26.8031H96.8579L97.1847 27.8997C97.48 28.0473 97.8912 28.1211 98.334 28.1211C98.9667 28.1211 99.3674 27.8469 99.3674 27.3514C99.3674 26.9929 99.1459 26.7187 98.6609 26.5606L97.4378 26.1704C96.1936 25.7803 95.5504 25.0844 95.5504 23.9773C95.5504 22.9439 96.2147 21.6997 98.4922 21.6997C99.4412 21.6997 100.506 21.8895 101.139 22.1637V24.146L101.118 24.1565Z" fill="#3B1C13"/>
<path d="M105.251 26.8558C105.251 27.4568 105.588 27.7099 106.094 27.7099C106.358 27.7099 106.875 27.6571 107.212 27.5939L107.265 29.1755C106.875 29.302 106.084 29.3969 105.557 29.3969C104.059 29.3969 103.48 28.4163 103.48 27.1088V23.429H102.14V22.0266L103.48 21.8684V20.0654L105.272 19.7702V21.8684H107.012V23.429H105.272V26.8452L105.251 26.8558Z" fill="#3B1C13"/>
<path d="M108.056 27.6782H109.606V23.429H108.056V21.8684H111.398V27.6782H112.832V29.2282H108.056V27.6782ZM109.3 19.3168C109.3 18.5471 109.785 18.1991 110.428 18.1991C110.997 18.1991 111.546 18.5365 111.546 19.3168C111.546 20.097 110.997 20.4028 110.428 20.4028C109.785 20.4028 109.3 20.1076 109.3 19.3168Z" fill="#3B1C13"/>
<path d="M116.902 32.7183V31.1578H118.568V28.6588C118.21 29.0279 117.682 29.418 116.66 29.418C114.561 29.418 113.56 27.984 113.56 25.5799C113.56 23.1759 114.625 21.7208 116.66 21.7208C117.725 21.7208 118.357 22.1531 118.874 22.6065L119.137 21.2358H120.361V31.0945L121.31 31.3159V32.7183H116.902ZM118.568 24.0194C118.294 23.7136 117.798 23.4079 117.113 23.4079C115.795 23.4079 115.447 24.3252 115.447 25.5694C115.447 26.8136 115.806 27.7204 117.113 27.7204C117.883 27.7204 118.336 27.3935 118.568 27.1932V24.03V24.0194Z" fill="#3B1C13"/>
<path d="M129.154 27.6677H130.251V29.2282H127.731V27.9418C127.341 28.585 126.508 29.3969 125 29.3969C123.418 29.3969 122.617 28.4163 122.617 26.4973V23.4289H121.552V21.879H124.41V26.2969C124.41 27.1826 124.705 27.6993 125.77 27.6993C126.413 27.6993 127.088 27.3408 127.383 26.8136V23.4289H126.023V21.879H129.154V27.6677Z" fill="#3B1C13"/>
<path d="M136.873 27.1826L137.453 28.6061C136.683 29.0911 135.607 29.4074 134.648 29.4074C132.096 29.4074 131.052 27.7942 131.052 25.5483C131.052 23.45 132.181 21.7103 134.437 21.7103C136.693 21.7103 137.537 23.3024 137.537 24.884C137.537 25.2847 137.484 25.833 137.41 26.1388H132.961C132.992 27.1721 133.541 27.8047 134.669 27.8047C135.439 27.8047 136.198 27.5833 136.883 27.1721L136.873 27.1826ZM135.776 24.7891C135.797 24.6942 135.797 24.6099 135.797 24.5677C135.797 23.6609 135.186 23.2075 134.437 23.2075C133.425 23.2075 133.035 23.914 132.971 24.7891H135.776Z" fill="#3B1C13"/>
<path d="M73.6925 35.6074V38.9182H72.0898V37.1784H70.213V44.96H71.6997V46.5205H66.8283V44.96H68.3467V37.1784H66.5753V38.9182H64.9937V35.6074H73.6925Z" fill="#009DE0"/>
<path d="M74.0827 39.1607H76.8136V40.7529C77.035 40.057 77.9102 38.992 78.8908 38.992C79.2282 38.992 79.6921 39.0236 80.019 39.0764L79.8714 41.143L78.5639 40.9005C77.868 40.9532 77.2564 41.3012 76.9296 41.8705V44.9705H78.5639V46.5205H74.0827V45.1181L75.1476 44.8229V40.7212H74.0827V39.1607Z" fill="#3B1C13"/>
<path d="M82.8764 41.7546H81.2948C81.1366 41.4488 81.0523 41.1114 81.0523 40.7529C81.0523 39.7406 81.9907 38.992 84.0257 38.992C86.2083 38.992 86.9781 39.6352 86.9781 41.7335V44.5909C86.9781 44.8967 87.1362 45.0232 87.3998 45.0232C87.558 45.0232 87.7056 45.0127 87.8321 44.9705V46.4994C87.5264 46.5626 87.1362 46.5943 86.7777 46.5943C85.8393 46.5943 85.3543 46.1409 85.2594 45.4661C84.8587 46.0671 84.0468 46.6786 82.8448 46.6786C81.4741 46.6786 80.6305 45.8773 80.6305 44.5698C80.6305 42.9566 82.0329 42.4399 84.2155 42.2818L85.1328 42.1869V40.7001C84.8903 40.6369 84.342 40.6052 84.0152 40.6052C83.4985 40.6052 83.2876 40.6263 82.8659 40.7001V41.7546H82.8764ZM83.4458 45.1919C84.1206 45.1919 84.7533 44.8651 85.1434 44.5171V43.3889L84.2261 43.5049C82.9397 43.6525 82.5601 43.9055 82.5601 44.4433C82.5601 44.9389 82.8659 45.2025 83.4458 45.2025V45.1919Z" fill="#3B1C13"/>
<path d="M88.7284 44.96H89.6774V40.7212H88.76V39.1607H91.2801V40.0359C91.6491 39.5825 92.2923 39.0026 93.7685 39.0026C95.445 39.0026 96.2569 40.0043 96.2569 41.9022V44.9705H97.1953V46.5205H93.3994V44.9705H94.4644V42.1025C94.4644 41.2168 94.1586 40.7002 93.0725 40.7002C92.4399 40.7002 91.7862 41.0059 91.4698 41.2484V44.9811H92.5032V46.531H88.7284V44.9811V44.96Z" fill="#3B1C13"/>
<path d="M103.69 41.4488H102.267L102.056 40.4682C101.761 40.3522 101.445 40.2889 101.044 40.2889C100.401 40.2889 100.105 40.658 100.105 41.0586C100.105 41.4171 100.253 41.6702 100.78 41.8494L101.94 42.2079C103.279 42.6297 103.954 43.294 103.954 44.4327C103.954 45.5715 103.195 46.6892 100.907 46.6892C99.7786 46.6892 98.9245 46.5099 98.1337 46.1936L98.0072 44.0953H99.4306L99.7575 45.1919C100.053 45.3395 100.464 45.4133 100.907 45.4133C101.539 45.4133 101.94 45.1392 101.94 44.6436C101.94 44.2851 101.719 44.011 101.234 43.8528L100.011 43.4627C98.7663 43.0726 98.1231 42.3767 98.1231 41.2695C98.1231 40.2362 98.7874 38.992 101.065 38.992C102.014 38.992 103.079 39.1818 103.712 39.4559V41.4382L103.69 41.4488Z" fill="#3B1C13"/>
<path d="M104.998 50V48.5344L105.841 48.313V40.7318H104.787V39.1713H107.486V39.9937C107.855 39.5087 108.393 39.0131 109.521 39.0131C111.556 39.0131 112.621 40.4155 112.621 42.8722C112.621 45.329 111.62 46.7103 109.521 46.7103C108.52 46.7103 107.971 46.3201 107.634 45.9511V48.45H109.205V50.0106H105.008L104.998 50ZM109.068 40.6896C108.393 40.6896 107.908 40.9954 107.634 41.3012V44.4644C107.855 44.6753 108.298 44.9916 109.068 44.9916C110.375 44.9916 110.734 44.0848 110.734 42.8406C110.734 41.5964 110.396 40.6791 109.068 40.6791V40.6896Z" fill="#3B1C13"/>
<path d="M120.73 42.8195C120.73 45.1076 119.791 46.6892 117.176 46.6892C114.561 46.6892 113.686 45.097 113.686 42.8511C113.686 40.6052 114.635 38.992 117.24 38.992C119.844 38.992 120.73 40.5736 120.73 42.8195ZM118.842 42.8511C118.842 41.3328 118.442 40.658 117.197 40.658C115.953 40.658 115.584 41.3328 115.584 42.8195C115.584 44.3062 116.016 45.0338 117.229 45.0338C118.442 45.0338 118.842 44.3273 118.842 42.8511Z" fill="#3B1C13"/>
<path d="M121.816 39.1607H124.547V40.7529C124.768 40.057 125.643 38.992 126.624 38.992C126.961 38.992 127.425 39.0236 127.752 39.0764L127.604 41.143L126.297 40.9005C125.601 40.9532 124.989 41.3012 124.663 41.8705V44.9705H126.297V46.5205H121.816V45.1181L122.881 44.8229V40.7212H121.816V39.1607Z" fill="#3B1C13"/>
<path d="M131.274 44.1375C131.274 44.7385 131.611 44.9916 132.117 44.9916C132.381 44.9916 132.898 44.9389 133.235 44.8756L133.288 46.4572C132.898 46.5838 132.107 46.6787 131.58 46.6787C130.082 46.6787 129.502 45.6981 129.502 44.3906V40.7107H128.163V39.3083L129.502 39.1502V37.3471L131.295 37.0519V39.1502H133.035V40.7107H131.295V44.127L131.274 44.1375Z" fill="#3B1C13"/>
<path d="M139.814 41.4488H138.391L138.18 40.4682C137.885 40.3522 137.569 40.2889 137.168 40.2889C136.525 40.2889 136.229 40.658 136.229 41.0586C136.229 41.4171 136.377 41.6702 136.904 41.8494L138.064 42.2079C139.403 42.6297 140.078 43.294 140.078 44.4327C140.078 45.5715 139.319 46.6892 137.031 46.6892C135.903 46.6892 135.049 46.5099 134.258 46.1936L134.131 44.0953H135.555L135.881 45.1919C136.177 45.3395 136.588 45.4133 137.031 45.4133C137.663 45.4133 138.064 45.1392 138.064 44.6436C138.064 44.2851 137.843 44.011 137.358 43.8528L136.135 43.4627C134.89 43.0726 134.247 42.3767 134.247 41.2695C134.247 40.2362 134.911 38.992 137.189 38.992C138.138 38.992 139.203 39.1818 139.836 39.4559V41.4382L139.814 41.4488Z" fill="#3B1C13"/>
<path d="M2.30915 28.7326C-0.453395 16.0797 7.57065 3.57445 20.2235 0.8119C27.9418 -0.875152 35.9869 1.44455 41.6385 6.96964C38.1801 6.87474 34.7322 7.10671 31.3159 7.64446C30.9258 7.64446 30.5673 7.76045 30.1877 7.83425C29.2176 8.02405 28.3214 8.21384 27.383 8.42472C25.6748 8.8254 23.9983 9.34206 22.3534 9.95361C22.0055 10.0591 21.6786 10.2067 21.3517 10.3754C18.7895 11.3771 16.3539 12.7056 14.1291 14.3189C8.94137 17.946 4.85027 22.9334 2.30915 28.7326Z" fill="#009DE0"/>
<path d="M47.4272 31.4108C43.1674 43.6525 29.787 50.116 17.5348 45.8562C11.472 43.7474 6.54787 39.2451 3.89076 33.4036C4.50232 32.6234 5.15605 31.8748 5.85196 31.1683L6.13665 30.8836C9.99578 27.0561 16.259 23.1232 26.5605 20.7613C47.248 15.9321 47.849 27.1932 47.4167 31.4108H47.4272Z" fill="#009DE0"/>
<path d="M58.8148 7.98187C58.8148 10.3754 56.8747 12.3155 54.4812 12.3155C54.1755 12.3155 53.8697 12.2839 53.5744 12.21C52.0877 11.8726 50.8857 10.776 50.4112 9.32097C50.2741 8.88866 50.2003 8.43526 50.1898 7.98187C50.1898 5.58836 52.1299 3.64825 54.5234 3.64825C56.9169 3.64825 58.857 5.58836 58.857 7.98187H58.8148Z" fill="#3B1C13"/>
<path d="M50.833 27.6255C50.5799 28.1527 50.2952 28.6588 49.9789 29.1438C49.1459 30.4407 48.2391 31.685 47.248 32.8764C47.248 32.7077 47.3956 32.1805 47.48 31.4319C47.9123 27.2143 47.2902 15.9532 26.6132 20.7929C16.3644 23.197 10.0485 27.1194 6.18937 30.9152L5.90468 31.1999C5.19823 31.8958 4.52341 32.6339 3.89076 33.4142C2.10881 35.6495 0.811894 38.2434 0.105441 41.0165L0 41.2168C0.326866 38.6124 0.938423 36.0502 1.82412 33.5829C2.16154 32.7288 2.49895 31.8326 2.92071 30.9047C5.25095 25.6221 8.98355 21.0776 13.7178 17.7668C15.7739 16.2695 18.0198 15.0464 20.3922 14.1291C20.6875 13.9814 21.0038 13.8549 21.3201 13.7495C22.8279 13.1801 24.3779 12.6951 25.949 12.3049C26.803 12.1046 27.6255 11.9464 28.5217 11.7672C28.8697 11.6934 29.1965 11.6407 29.5445 11.5985C32.8237 11.0818 36.1451 10.8815 39.4559 10.9869H39.5403C41.7229 11.0924 43.8739 11.5774 45.8878 12.4315C48.9561 13.76 51.1915 16.5015 51.8768 19.7701C52.4251 22.4273 52.0666 25.2003 50.833 27.6149V27.6255Z" fill="#3B1C13"/>
<path d="M205.145 40.0675C205.631 39.4348 205.873 38.6862 205.873 37.8427C205.873 36.8937 205.525 36.0607 204.84 35.3754C204.175 34.69 203.342 34.342 202.362 34.342H198.925C198.439 34.342 198.102 34.6795 198.102 35.1645V46.2568C198.102 46.7313 198.45 47.0793 198.925 47.0793H202.773C203.775 47.0793 204.65 46.7208 205.356 46.0038C206.073 45.2868 206.442 44.4116 206.442 43.4205V42.9355C206.442 42.2079 206.242 41.5226 205.841 40.9005C205.652 40.5841 205.409 40.31 205.145 40.0675ZM203.089 38.76C202.868 38.9814 202.573 39.0974 202.183 39.0974H200.548V36.7988H202.362C202.689 36.7988 202.91 36.8832 203.121 37.094C203.342 37.3155 203.437 37.5369 203.437 37.8532C203.437 38.2434 203.332 38.5175 203.1 38.76M200.559 41.5331H202.604C202.984 41.5331 203.311 41.6702 203.585 41.9443C203.87 42.229 204.007 42.5559 204.007 42.9355V43.4205C204.007 43.7474 203.891 44.032 203.648 44.2746C203.406 44.5171 203.121 44.6331 202.784 44.6331H200.559V41.5331Z" fill="#3B1C13"/>
<path d="M212.758 34.1733C211.577 34.1733 210.555 34.5951 209.722 35.4386C208.889 36.2716 208.456 37.2944 208.456 38.4753V42.9987C208.456 44.1797 208.878 45.2024 209.722 46.0354C210.555 46.8684 211.577 47.3007 212.758 47.3007C213.939 47.3007 214.962 46.8789 215.795 46.0354C216.628 45.2024 217.06 44.1797 217.06 42.9987V38.4753C217.06 37.2944 216.639 36.2716 215.795 35.4386C214.962 34.6056 213.939 34.1733 212.758 34.1733ZM210.903 38.4753C210.903 37.9481 211.082 37.5264 211.451 37.1468C211.809 36.7883 212.242 36.609 212.758 36.609C213.275 36.609 213.707 36.7883 214.066 37.1468C214.445 37.5264 214.614 37.9481 214.614 38.4753V42.9987C214.614 43.5365 214.445 43.9372 214.066 44.3062C213.697 44.6752 213.264 44.8545 212.758 44.8545C212.252 44.8545 211.82 44.6752 211.44 44.2957C211.071 43.9372 210.892 43.5259 210.892 42.9987V38.4753H210.903Z" fill="#3B1C13"/>
<path d="M234.31 34.3526H231.569C231.084 34.3526 230.747 34.69 230.747 35.175V46.2674C230.747 46.7419 231.094 47.0898 231.569 47.0898H234.722C235.871 47.0898 236.873 46.6786 237.685 45.8562C238.496 45.0443 238.918 44.0426 238.918 42.8933V38.9393C238.918 37.6845 238.465 36.5879 237.558 35.6917C236.672 34.806 235.576 34.3526 234.31 34.3526ZM234.722 44.6436H233.193V36.7988H234.31C234.911 36.7988 235.407 37.0097 235.829 37.4315C236.261 37.8638 236.472 38.3593 236.472 38.9498V42.9038C236.472 43.3994 236.303 43.7895 235.955 44.1375C235.597 44.496 235.207 44.6542 234.722 44.6542" fill="#3B1C13"/>
<path d="M247.997 44.6331H243.948V41.512H247.322C247.775 41.512 248.123 41.1641 248.123 40.6896V39.8882C248.123 39.4032 247.796 39.0658 247.322 39.0658H243.948V36.7777H247.891C248.355 36.7777 248.714 36.4298 248.714 35.9553V35.1539C248.714 34.6795 248.366 34.3315 247.891 34.3315H242.324C241.839 34.3315 241.501 34.6689 241.501 35.1539V46.2463C241.501 46.7208 241.849 47.0688 242.324 47.0688H247.997C248.471 47.0688 248.819 46.7208 248.819 46.2463V45.445C248.819 44.9705 248.471 44.6225 247.997 44.6225" fill="#3B1C13"/>
<path d="M257.096 34.9114C256.98 34.5635 256.685 34.342 256.326 34.342H254.85C254.481 34.342 254.197 34.5635 254.081 34.922L250.717 45.93C250.675 46.0249 250.654 46.1409 250.654 46.2568C250.654 46.7313 251.002 47.0793 251.476 47.0793H252.309C252.689 47.0793 253.005 46.8368 253.089 46.4994L254.081 43.2729H257.117L258.108 46.5204V46.5626C258.256 46.8895 258.541 47.0793 258.899 47.0793H259.732C260.196 47.0793 260.555 46.7313 260.555 46.2568C260.555 46.1409 260.534 46.0249 260.491 45.9511L257.117 34.9114H257.096ZM256.495 40.8161H254.692L255.588 37.7689L256.495 40.8161Z" fill="#3B1C13"/>
<path d="M269.633 34.3526H268.832C268.357 34.3526 268.009 34.7005 268.009 35.175V43.2729C268.009 43.7368 267.862 44.0953 267.556 44.3905C267.24 44.7069 266.871 44.865 266.438 44.865C266.006 44.865 265.637 44.7174 265.31 44.38C265.004 44.0848 264.846 43.7052 264.846 43.2729V35.175C264.846 34.69 264.509 34.3526 264.024 34.3526H263.222C262.748 34.3526 262.4 34.7005 262.4 35.175V43.2729C262.4 44.38 262.801 45.3395 263.581 46.1198C264.361 46.9 265.321 47.3007 266.428 47.3007C267.535 47.3007 268.494 46.9 269.285 46.1092C270.055 45.3184 270.445 44.3589 270.445 43.2623V35.1645C270.445 34.6795 270.108 34.342 269.623 34.342" fill="#3B1C13"/>
<path d="M278.089 40.6896L280.936 35.4808L280.989 35.3332C281.063 34.9852 280.947 34.7533 280.841 34.6162C280.757 34.5107 280.557 34.321 280.198 34.321H279.376C279.038 34.321 278.754 34.5107 278.648 34.7849L276.75 38.2434L274.863 34.806C274.747 34.5107 274.462 34.321 274.125 34.321H273.302C272.944 34.321 272.744 34.5002 272.659 34.6162C272.554 34.7533 272.438 34.9852 272.522 35.3543L272.575 35.5019L275.411 40.6896L272.575 45.8562L272.533 45.9616C272.417 46.3412 272.554 46.5943 272.638 46.7102C272.723 46.8262 272.933 47.0266 273.302 47.0266H274.135C274.462 47.0266 274.736 46.8473 274.873 46.5415L276.74 43.1253L278.606 46.531C278.743 46.8368 279.017 47.0266 279.344 47.0266H280.177C280.546 47.0266 280.757 46.8262 280.841 46.7102C280.936 46.5943 281.063 46.3307 280.947 45.9405L278.079 40.679L278.089 40.6896Z" fill="#3B1C13"/>
<path d="M228.068 45.9405L225.844 41.7124C226.118 41.5542 226.381 41.3539 226.624 41.1113C227.32 40.4154 227.678 39.5614 227.678 38.5702V37.9376C227.678 36.9464 227.32 36.0818 226.624 35.3859C225.938 34.7005 225.084 34.342 224.083 34.342H220.508C220.023 34.342 219.686 34.6795 219.686 35.1645V46.2568C219.686 46.7313 220.034 47.0793 220.508 47.0793H221.31C221.774 47.0793 222.132 46.7313 222.132 46.2568V42.1552H223.429L225.717 46.531C225.854 46.8473 226.128 47.0266 226.455 47.0266H227.288C227.668 47.0266 227.868 46.8262 227.952 46.7102C228.037 46.5943 228.174 46.3307 228.058 45.9616C228.058 45.9616 228.058 45.9405 228.047 45.93M225.221 37.9376V38.5702C225.221 38.8865 225.116 39.1291 224.873 39.3716C224.631 39.6141 224.388 39.7195 224.072 39.7195H222.121V36.7883H224.072C224.388 36.7883 224.652 36.8937 224.863 37.1046C225.116 37.3682 225.221 37.6107 225.221 37.9376Z" fill="#3B1C13"/>
<path d="M189.793 40.1518H189.53C189.466 40.1518 189.445 40.1202 189.445 40.0675V39.9937C189.445 39.9304 189.414 39.9093 189.361 39.9093C189.34 39.9093 189.319 39.9093 189.308 39.9304C189.013 40.1624 188.697 40.2678 188.349 40.2678C187.737 40.2678 187.263 39.9515 186.894 39.3083C186.841 39.2239 186.82 39.1185 186.82 39.0236V37.5264C186.82 36.9359 187.115 36.4719 187.716 36.1029C187.737 36.0924 187.758 36.0818 187.779 36.0713C188.307 35.9342 188.771 35.9658 189.161 36.2189C189.182 36.2189 189.192 36.24 189.224 36.24C189.277 36.24 189.308 36.2189 189.308 36.1662V34.4686C189.308 34.4053 189.34 34.3842 189.393 34.3842H189.804C189.857 34.3842 189.888 34.4053 189.888 34.4686V40.0675C189.888 40.1202 189.867 40.1518 189.804 40.1518M189.298 37.5158C189.298 37.2522 189.213 37.0308 189.024 36.8515C188.834 36.6617 188.612 36.5774 188.359 36.5774C188.106 36.5774 187.864 36.6617 187.685 36.8515C187.505 37.0308 187.41 37.2522 187.41 37.5158V38.7284C187.41 38.992 187.505 39.2134 187.685 39.4032C187.864 39.5824 188.096 39.6773 188.359 39.6773C188.623 39.6773 188.844 39.5824 189.024 39.4032C189.213 39.2134 189.298 38.992 189.298 38.7284V37.5158Z" fill="#3B1C13"/>
<path d="M193.716 38.3804H191.554C191.501 38.3804 191.47 38.4121 191.47 38.4648V38.7073C191.47 38.9814 191.565 39.2029 191.744 39.3821C191.934 39.5719 192.155 39.6668 192.419 39.6668C192.756 39.6668 193.051 39.5719 193.326 39.3821C193.368 39.3505 193.41 39.361 193.442 39.4032L193.684 39.7406C193.684 39.7406 193.705 39.825 193.663 39.8566C193.21 40.194 192.651 40.31 192.029 40.2151C191.934 40.2046 191.839 40.1624 191.765 40.1202C191.185 39.7617 190.89 39.2978 190.89 38.7073V37.1046C190.89 37.0308 190.911 36.957 190.943 36.8937C191.291 36.2927 191.755 35.9764 192.345 35.9764C192.746 35.9764 193.094 36.124 193.378 36.4087C193.663 36.6934 193.8 37.0413 193.8 37.4315V38.2855C193.8 38.3383 193.779 38.3699 193.716 38.3699M193.21 37.4315C193.21 37.1889 193.125 36.9886 192.957 36.8094C192.777 36.6301 192.577 36.5563 192.334 36.5563C192.092 36.5563 191.892 36.6407 191.723 36.8094C191.544 36.9886 191.459 37.1889 191.459 37.4315V37.7056C191.459 37.7583 191.491 37.79 191.544 37.79H193.125C193.178 37.79 193.21 37.7583 193.21 37.7056V37.4315Z" fill="#3B1C13"/>
<path d="M219.19 22.4905V11.7039C219.19 11.4192 219.011 11.2927 218.684 11.2927H216.016C215.647 11.2927 215.51 11.124 215.51 10.8393V8.69887C215.51 8.41418 215.647 8.28765 216.016 8.28765H218.684C219 8.28765 219.19 8.11894 219.19 7.83425V2.70983C219.19 2.42514 219.369 2.25644 219.696 2.25644H222.037C222.364 2.25644 222.543 2.42514 222.543 2.70983V7.8448C222.543 8.12949 222.722 8.29819 223.049 8.29819H230.072C230.441 8.29819 230.578 8.42472 230.578 8.70941V10.8499C230.578 11.1345 230.441 11.3033 230.072 11.3033H223.049C222.722 11.3033 222.543 11.4298 222.543 11.7145V22.5011" fill="#009DE0"/>
<path d="M222.554 17.1868L222.575 23.0599C222.543 24.5255 222.722 25.7275 223.134 26.6765C223.545 27.6255 224.526 28.0999 226.075 28.0999C226.677 28.0999 227.404 27.984 228.29 27.7414C229.165 27.4989 230.177 27.1404 231.316 26.666C231.348 26.7925 231.379 26.8979 231.379 26.9612C231.379 27.0245 231.4 27.0983 231.421 27.1826C230.789 27.8047 229.629 28.4163 227.931 29.0278C226.244 29.6288 224.715 29.9346 223.355 29.9346C222.185 29.9346 221.173 29.5761 220.329 28.8486C219.485 28.1316 219.064 26.8768 219.064 25.1054V22.6487L219.201 18.8106" fill="#3B1C13"/>
<path d="M196.658 15.8477V22.7014C196.658 23.914 197.111 24.9578 198.07 25.833C199.03 26.7081 200.127 27.1299 201.497 27.1299C202.868 27.1299 203.965 26.7081 204.882 25.833C205.841 24.9578 206.348 23.914 206.348 22.7014V8.76213C206.348 8.46689 206.485 8.34036 206.801 8.34036H209.173C209.49 8.34036 209.679 8.46689 209.679 8.76213V22.7014C209.679 24.7469 208.857 26.4973 207.254 27.9629C205.652 29.418 203.733 30.1771 201.497 30.1771C199.262 30.1771 197.29 29.4285 195.698 27.9629C194.095 26.5078 193.326 24.7469 193.326 22.7014V15.8477H196.658Z" fill="#3B1C13"/>
<path d="M196.658 8.8781C196.658 8.40362 196.288 8.09784 195.962 8.09784C195.487 8.09784 194.074 8.30872 193.315 8.30872C191.006 8.30872 190.763 8.22437 190.299 8.22437C189.92 8.22437 189.593 8.47743 189.593 8.95191C189.593 9.42639 189.92 9.73217 190.299 9.73217C190.774 9.73217 191.006 9.56347 193.315 9.56347V15.8477H196.658V8.8781Z" fill="#009DE0"/>
<path d="M182.666 6.33699C180.947 6.33699 179.66 4.6183 179.66 3.00506C179.66 1.5078 181.158 0 182.666 0C184.279 0 185.945 1.3391 185.945 3.00506C185.945 4.89245 184.553 6.33699 182.666 6.33699Z" fill="#009DE0"/>
<path d="M185.291 15.0569V29.1649C185.291 29.4602 185.122 29.6289 184.838 29.6289H182.708C182.37 29.6289 182.244 29.4602 182.244 29.1649V17.0814L185.291 15.0569Z" fill="#3B1C13"/>
<path d="M185.291 15.0569V8.24545H179.924V10.9975H182.244V17.0814L185.291 15.0569Z" fill="#009DE0"/>
<path d="M146.784 49.5888C146.658 49.5888 146.52 49.5572 146.404 49.4834C146.035 49.2725 145.909 48.8085 146.12 48.4395L173.882 0.379597C174.093 0.0105542 174.568 -0.115975 174.926 0.0949068C175.295 0.305788 175.422 0.769728 175.211 1.13877L147.448 49.1881C147.311 49.4306 147.048 49.5677 146.784 49.5677" fill="#009DE0"/>
</g>
<defs>
<clipPath id="clip0_271_1372">
<rect width="281.01" height="50" fill="white"/>
</clipPath>
</defs>
</svg>
