<?xml version="1.0" encoding="UTF-8"?>
<svg id="Calque_1" xmlns="http://www.w3.org/2000/svg" version="1.1" viewBox="0 0 272.2 50">
  <!-- Generator: Adobe Illustrator 30.6.0, SVG Export Plug-In . SVG Version: 2.1.4 Build 109)  -->
  <defs>
    <style>
      .st0 {
        fill: #fff;
      }
    </style>
  </defs>
  <path class="st0" d="M71.8,2.9h3.7v1.5h-1l.8,7.5h1.1v1.5h-4.1v-1.5h1.2l-.7-7-2.4,8.5h-2l-2.3-8.4-.8,6.9h1.3v1.5h-4.1v-1.5h1l.9-7.5h-1v-1.5h3.7l2.2,8.4,2.3-8.4h0Z"/>
  <path class="st0" d="M79.2,8.8h-1.5c-.2-.3-.2-.6-.2-1,0-1,.9-1.7,2.9-1.7s2.8.6,2.8,2.6v2.7c0,.3.2.4.4.4s.3,0,.4,0v1.5c-.3,0-.7,0-1,0-.9,0-1.4-.4-1.5-1.1-.4.6-1.2,1.2-2.3,1.2s-2.1-.8-2.1-2,1.3-2,3.5-2.2h.9v-1.5c-.2,0-.8,0-1.1,0-.5,0-.7,0-1.1,0v1h0ZM79.7,12.1c.6,0,1.3-.3,1.6-.6v-1.1h-.9c-1.2.3-1.6.5-1.6,1s.3.7.9.7h0Z"/>
  <path class="st0" d="M84.8,11.9h.9v-4.1h-.9v-1.5h2.4v.8c.4-.4,1-1,2.4-1s2.4,1,2.4,2.8v2.9h.9v1.5h-3.7v-1.5h1v-2.8c0-.9-.3-1.3-1.3-1.3s-1.2.3-1.5.5v3.6h1v1.5h-3.6v-1.5h0Z"/>
  <path class="st0" d="M95.8,8.8h-1.5c-.2-.3-.2-.6-.2-1,0-1,.9-1.7,2.9-1.7s2.8.6,2.8,2.6v2.7c0,.3.2.4.4.4s.3,0,.4,0v1.5c-.3,0-.7,0-1,0-.9,0-1.4-.4-1.5-1.1-.4.6-1.2,1.2-2.3,1.2s-2.1-.8-2.1-2,1.3-2,3.5-2.2h.9v-1.5c-.2,0-.8,0-1.1,0-.5,0-.7,0-1.1,0v1h0ZM96.3,12.1c.6,0,1.3-.3,1.6-.6v-1.1h-.9c-1.2.3-1.6.5-1.6,1s.3.7.9.7h0Z"/>
  <path class="st0" d="M107.1,7.6c.3.3.4.9.4,1.4,0,1.6-1.2,2.5-3,2.5s-.9,0-1.2-.2v.9c0,0,2.3,0,2.3,0,1.5,0,2.4.7,2.4,2s-1.4,2.6-3.7,2.6-3.2-.7-3.2-1.8.7-1.3,1.2-1.4c-.4-.2-.6-.6-.6-1,0-.7.5-1.1.9-1.4-.8-.4-1.2-1.2-1.2-2.2,0-1.6,1.1-2.8,3.2-2.8s1.5.2,1.9.5c.5-.8,1.2-1,2-.9v1.7s-1.3.2-1.3.2h0ZM102.8,14.6c0,.5.4.9,1.6.9s1.8-.3,1.8-1-.2-.7-.9-.7h-2c-.2.2-.5.4-.5.8ZM105.9,9c0-.8-.4-1.3-1.4-1.3s-1.4.5-1.4,1.3.3,1.2,1.4,1.2,1.4-.5,1.4-1.2Z"/>
  <path class="st0" d="M114.6,11.4l.6,1.4c-.7.5-1.8.8-2.7.8-2.5,0-3.5-1.6-3.5-3.7s1.1-3.7,3.3-3.7,3,1.5,3,3.1,0,.9-.1,1.2h-4.3c0,1,.6,1.6,1.6,1.6s1.5-.2,2.1-.6h0ZM113.6,9.1c0,0,0-.2,0-.2,0-.9-.6-1.3-1.3-1.3s-1.3.7-1.4,1.5h2.7Z"/>
  <path class="st0" d="M116.3,11.9h.9v-4.1h-.9v-1.5h2.4v.8c.3-.5,1-1,2-1s1.5.4,1.9,1c.4-.5,1.1-1,2.2-1s2.2.9,2.2,2.7v3.1h.9v1.5h-3.4v-1.5h.7v-2.9c0-.7-.3-1.2-1-1.2s-1,.3-1.3.5v3.6h.8v1.5h-3.2v-1.5h.8v-3.4c-.2-.4-.5-.7-1.1-.7s-1,.2-1.2.5v3.6h.7v1.5h-3.4v-1.5h0Z"/>
  <path class="st0" d="M134.4,11.4l.6,1.4c-.7.5-1.8.8-2.7.8-2.5,0-3.5-1.6-3.5-3.7s1.1-3.7,3.3-3.7,3,1.5,3,3.1,0,.9-.1,1.2h-4.3c0,1,.6,1.6,1.6,1.6s1.5-.2,2.1-.6h0ZM133.3,9.1c0,0,0-.2,0-.2,0-.9-.6-1.3-1.3-1.3s-1.3.7-1.4,1.5h2.7Z"/>
  <path class="st0" d="M136.1,11.9h.9v-4.1h-.9v-1.5h2.4v.8c.4-.4,1-1,2.4-1s2.4,1,2.4,2.8v2.9h.9v1.5h-3.7v-1.5h1v-2.8c0-.9-.3-1.3-1.3-1.3s-1.2.3-1.5.5v3.6h1v1.5h-3.6v-1.5h0Z"/>
  <path class="st0" d="M147.6,11.1c0,.6.3.8.8.8s.8,0,1.1-.1v1.5c-.3.1-1.1.2-1.6.2-1.4,0-2-.9-2-2.2v-3.5h-1.3v-1.3l1.3-.2v-1.7l1.7-.3v2h1.7v1.5h-1.7v3.3h0Z"/>
  <path class="st0" d="M70.4,26.5v3.5h-7.3v-1.5h1.1v-7.5h-1.1v-1.5h4.1v1.5h-1.2v7.5h2.8v-2h1.6Z"/>
  <path class="st0" d="M78,26.5c0,2.2-.9,3.7-3.4,3.7s-3.4-1.5-3.4-3.7.9-3.7,3.4-3.7,3.4,1.5,3.4,3.7ZM76.2,26.5c0-1.5-.4-2.1-1.6-2.1s-1.6.6-1.6,2.1.4,2.1,1.6,2.1,1.6-.7,1.6-2.1Z"/>
  <path class="st0" d="M84.8,24.3c.3.3.4.9.4,1.4,0,1.6-1.2,2.5-3,2.5s-.9,0-1.2-.2v.9c0,0,2.3,0,2.3,0,1.5,0,2.4.7,2.4,2s-1.4,2.6-3.7,2.6-3.2-.7-3.2-1.8.7-1.3,1.2-1.4c-.4-.2-.6-.6-.6-1,0-.7.5-1.1.9-1.4-.8-.4-1.2-1.2-1.2-2.2,0-1.6,1.1-2.8,3.2-2.8s1.5.2,1.9.5c.5-.8,1.2-1,2-.9v1.7s-1.3.2-1.3.2h0ZM80.5,31.3c0,.5.4.9,1.6.9s1.8-.3,1.8-1-.2-.7-.9-.7h-2c-.2.2-.5.4-.5.8ZM83.6,25.6c0-.8-.4-1.3-1.4-1.3s-1.4.5-1.4,1.3.3,1.2,1.4,1.2,1.4-.5,1.4-1.2Z"/>
  <path class="st0" d="M86.7,28.5h1.5v-4.1h-1.5v-1.5h3.2v5.6h1.4v1.5h-4.6v-1.5ZM87.9,20.5c0-.7.5-1.1,1.1-1.1s1.1.3,1.1,1.1-.5,1-1.1,1-1.1-.3-1.1-1Z"/>
  <path class="st0" d="M97.5,25.1h-1.4l-.2-.9c-.3-.1-.6-.2-1-.2-.6,0-.9.4-.9.7s.1.6.6.8l1.1.3c1.3.4,1.9,1,1.9,2.1s-.7,2.2-2.9,2.2-1.9-.2-2.7-.5v-2c-.1,0,1.2,0,1.2,0l.3,1.1c.3.1.7.2,1.1.2.6,0,1-.3,1-.7s-.2-.6-.7-.8l-1.2-.4c-1.2-.4-1.8-1-1.8-2.1s.6-2.2,2.8-2.2,1.9.2,2.5.4v1.9h0Z"/>
  <path class="st0" d="M101.5,27.7c0,.6.3.8.8.8s.8,0,1.1-.1v1.5c-.3.1-1.1.2-1.6.2-1.4,0-2-.9-2-2.2v-3.5h-1.3v-1.3l1.3-.2v-1.7l1.7-.3v2h1.7v1.5h-1.7v3.3h0Z"/>
  <path class="st0" d="M104.2,28.5h1.5v-4.1h-1.5v-1.5h3.2v5.6h1.4v1.5h-4.6v-1.5ZM105.4,20.5c0-.7.5-1.1,1.1-1.1s1.1.3,1.1,1.1-.5,1-1.1,1-1.1-.3-1.1-1Z"/>
  <path class="st0" d="M112.7,33.4v-1.5h1.6v-2.4c-.3.4-.9.7-1.8.7-2,0-3-1.4-3-3.7s1-3.7,3-3.7,1.6.4,2.1.9l.3-1.3h1.2v9.5l.9.2v1.3h-4.2ZM114.3,25c-.3-.3-.7-.6-1.4-.6-1.3,0-1.6.9-1.6,2.1s.3,2.1,1.6,2.1,1.2-.3,1.4-.5v-3h0Z"/>
  <path class="st0" d="M124.5,28.5h1.1v1.5h-2.4v-1.2c-.4.6-1.2,1.4-2.6,1.4s-2.3-.9-2.3-2.8v-2.9h-1v-1.5h2.8v4.2c0,.9.3,1.3,1.3,1.3s1.3-.3,1.6-.9v-3.3h-1.3v-1.5h3v5.6Z"/>
  <path class="st0" d="M131.9,28.1l.6,1.4c-.7.5-1.8.8-2.7.8-2.5,0-3.5-1.6-3.5-3.7s1.1-3.7,3.3-3.7,3,1.5,3,3.1,0,.9-.1,1.2h-4.3c0,1,.6,1.6,1.6,1.6s1.5-.2,2.1-.6h0ZM130.8,25.8c0,0,0-.2,0-.2,0-.9-.6-1.3-1.3-1.3s-1.3.7-1.4,1.5h2.7Z"/>
  <path class="st0" d="M71.1,36.2v3.2h-1.5v-1.7h-1.8v7.5h1.4v1.5h-4.7v-1.5h1.5v-7.5h-1.7v1.7h-1.5v-3.2h8.4Z"/>
  <path class="st0" d="M71.5,39.6h2.6v1.5c.2-.7,1.1-1.7,2-1.7s.8,0,1.1,0v2c-.1,0-1.4-.2-1.4-.2-.7,0-1.3.4-1.6.9v3h1.6v1.5h-4.3v-1.3l1-.3v-3.9h-1v-1.5Z"/>
  <path class="st0" d="M79.9,42.1h-1.5c-.2-.3-.2-.6-.2-1,0-1,.9-1.7,2.9-1.7s2.8.6,2.8,2.6v2.7c0,.3.2.4.4.4s.3,0,.4,0v1.5c-.3,0-.7,0-1,0-.9,0-1.4-.4-1.5-1.1-.4.6-1.2,1.2-2.3,1.2s-2.1-.8-2.1-2,1.3-2,3.5-2.2h.9v-1.5c-.2,0-.8,0-1.1,0-.5,0-.7,0-1.1,0v1h0ZM80.5,45.4c.6,0,1.3-.3,1.6-.6v-1.1h-.9c-1.2.3-1.6.5-1.6,1s.3.7.9.7h0Z"/>
  <path class="st0" d="M85.6,45.1h.9v-4.1h-.9v-1.5h2.4v.8c.4-.4,1-1,2.4-1s2.4,1,2.4,2.8v2.9h.9v1.5h-3.7v-1.5h1v-2.8c0-.9-.3-1.3-1.3-1.3s-1.2.3-1.5.5v3.6h1v1.5h-3.6v-1.5h0Z"/>
  <path class="st0" d="M100,41.8h-1.4l-.2-.9c-.3-.1-.6-.2-1-.2-.6,0-.9.4-.9.7s.1.6.6.8l1.1.3c1.3.4,1.9,1,1.9,2.1s-.7,2.2-2.9,2.2-1.9-.2-2.7-.5v-2c-.1,0,1.2,0,1.2,0l.3,1.1c.3.1.7.2,1.1.2.6,0,1-.3,1-.7s-.2-.6-.7-.8l-1.2-.4c-1.2-.4-1.8-1-1.8-2.1s.6-2.2,2.8-2.2,1.9.2,2.5.4v1.9h0Z"/>
  <path class="st0" d="M101.2,50v-1.4l.8-.2v-7.3h-1v-1.5h2.6v.8c.4-.5.9-.9,2-.9,2,0,3,1.3,3,3.7s-1,3.7-3,3.7-1.5-.4-1.8-.7v2.4h1.5v1.5h-4ZM105.1,41c-.6,0-1.1.3-1.4.6v3c.2.2.6.5,1.4.5,1.3,0,1.6-.9,1.6-2.1s-.3-2.1-1.6-2.1h0Z"/>
  <path class="st0" d="M116.4,43.1c0,2.2-.9,3.7-3.4,3.7s-3.4-1.5-3.4-3.7.9-3.7,3.4-3.7,3.4,1.5,3.4,3.7ZM114.5,43.1c0-1.5-.4-2.1-1.6-2.1s-1.6.6-1.6,2.1.4,2.1,1.6,2.1,1.6-.7,1.6-2.1Z"/>
  <path class="st0" d="M117.4,39.6h2.6v1.5c.2-.7,1.1-1.7,2-1.7s.8,0,1.1,0v2c-.1,0-1.4-.2-1.4-.2-.7,0-1.3.4-1.6.9v3h1.6v1.5h-4.3v-1.3l1-.3v-3.9h-1v-1.5Z"/>
  <path class="st0" d="M126.5,44.4c0,.6.3.8.8.8s.8,0,1.1-.1v1.5c-.3.1-1.1.2-1.6.2-1.4,0-2-.9-2-2.2v-3.5h-1.3v-1.3l1.3-.2v-1.7l1.7-.3v2h1.7v1.5h-1.7v3.3h0Z"/>
  <path class="st0" d="M134.7,41.8h-1.4l-.2-.9c-.3-.1-.6-.2-1-.2-.6,0-.9.4-.9.7s.1.6.6.8l1.1.3c1.3.4,1.9,1,1.9,2.1s-.7,2.2-2.9,2.2-1.9-.2-2.7-.5v-2c-.1,0,1.2,0,1.2,0l.3,1.1c.3.1.7.2,1.1.2.6,0,1-.3,1-.7s-.2-.6-.7-.8l-1.2-.4c-1.2-.4-1.8-1-1.8-2.1s.6-2.2,2.8-2.2,1.9.2,2.5.4v1.9h0Z"/>
  <path class="st0" d="M140.5,50c-.1,0-.3,0-.4-.1-.4-.2-.5-.7-.3-1.1L167.7.4c.2-.4.7-.5,1.1-.3.4.2.5.7.3,1.1l-27.9,48.4c-.1.2-.4.4-.7.4Z"/>
  <g id="g930">
    <path id="path888" class="st0" d="M199.3,40.8c.5-.6.7-1.3.7-2.1s-.3-1.7-1-2.4c-.6-.7-1.4-1-2.4-1h-3.3c-.5,0-.8.3-.8.8v10.7c0,.5.3.8.8.8h3.7c1,0,1.8-.3,2.5-1,.7-.7,1.1-1.5,1.1-2.5v-.5c0-.7-.2-1.4-.6-2-.2-.3-.4-.6-.7-.8M197.3,39.6c-.2.2-.5.3-.9.3h-1.6v-2.2h1.7c.3,0,.5,0,.7.3.2.2.3.4.3.7,0,.4-.1.6-.3.9M194.9,42.2h2c.4,0,.7.1.9.4.3.3.4.6.4,1v.5c0,.3-.1.6-.3.8-.2.2-.5.3-.8.3h-2.1v-3Z"/>
    <path id="path890" class="st0" d="M206.6,35.2c-1.1,0-2.1.4-2.9,1.2s-1.2,1.8-1.2,2.9v4.3c0,1.1.4,2.1,1.2,2.9s1.8,1.2,2.9,1.2,2.1-.4,2.9-1.2,1.2-1.8,1.2-2.9v-4.3c0-1.1-.4-2.1-1.2-2.9s-1.8-1.2-2.9-1.2M204.8,39.3c0-.5.2-.9.5-1.3.3-.3.8-.5,1.3-.5s.9.2,1.3.5.5.8.5,1.3v4.3c0,.5-.2.9-.5,1.3s-.8.5-1.3.5-.9-.2-1.3-.5c-.4-.3-.5-.7-.5-1.2v-4.4Z"/>
    <path id="path892" class="st0" d="M227.3,35.3h-2.6c-.5,0-.8.3-.8.8v10.7c0,.5.3.8.8.8h3c1.1,0,2.1-.4,2.9-1.2.8-.8,1.2-1.7,1.2-2.8v-3.8c0-1.2-.4-2.3-1.3-3.1-.9-.8-1.9-1.3-3.1-1.3M227.7,45.2h-1.5v-7.5h1.1c.6,0,1.1.2,1.5.6.4.4.6.9.6,1.5v3.8c0,.5-.2.8-.5,1.2-.3.3-.7.5-1.2.5"/>
    <path id="path894" class="st0" d="M240.5,45.2h-3.9v-3h3.2c.4,0,.8-.3.8-.8v-.8c0-.5-.3-.8-.8-.8h-3.2v-2.2h3.8c.4,0,.8-.3.8-.8v-.8c0-.5-.3-.8-.8-.8h-5.3c-.5,0-.8.3-.8.8v10.7c0,.5.3.8.8.8h5.4c.5,0,.8-.3.8-.8v-.8c0-.5-.3-.8-.8-.8"/>
    <path id="path896" class="st0" d="M249.2,35.9c-.1-.3-.4-.6-.7-.6h-1.4c-.3,0-.6.2-.7.6l-3.2,10.6c0,0,0,.2,0,.3,0,.5.3.8.8.8h.8c.4,0,.7-.2.7-.6l1-3.1h2.9l1,3.1h0c.1.3.4.5.7.5h.8c.4,0,.8-.3.8-.8s0-.2,0-.3l-3.3-10.6ZM248.6,41.5h-1.7l.9-2.9.9,2.9Z"/>
    <path id="path898" class="st0" d="M261.3,35.3h-.8c-.5,0-.8.3-.8.8v7.8c0,.4-.1.8-.4,1.1-.3.3-.7.5-1.1.5s-.8-.2-1.1-.5c-.3-.3-.4-.7-.4-1.1v-7.8c0-.5-.3-.8-.8-.8h-.8c-.5,0-.8.3-.8.8v7.8c0,1.1.4,2,1.1,2.7.7.7,1.7,1.1,2.7,1.1s2-.4,2.7-1.1,1.1-1.7,1.1-2.7v-7.8c0-.4-.3-.8-.8-.8"/>
    <path id="path900" class="st0" d="M269.4,41.4l2.7-5h0c0-.5,0-.7-.1-.8,0-.1-.3-.3-.6-.3h-.8c-.3,0-.6.2-.7.4l-1.8,3.3-1.8-3.3c-.1-.3-.4-.5-.7-.5h-.8c-.3,0-.5.2-.6.3,0,.1-.2.4-.1.7h0c0,.1,2.7,5.1,2.7,5.1l-2.7,5h0c-.1.5,0,.7,0,.8s.3.3.6.3h.8c.3,0,.6-.2.7-.5l1.8-3.3,1.8,3.3c.1.3.4.5.7.5h.8c.4,0,.6-.2.6-.3,0-.1.2-.4,0-.7l-2.8-5Z"/>
    <path id="path902" class="st0" d="M221.3,46.5l-2.1-4.1c.3-.2.5-.3.7-.6.7-.7,1-1.5,1-2.4v-.6c0-1-.3-1.8-1-2.4s-1.5-1-2.4-1h-3.4c-.5,0-.8.3-.8.8v10.7c0,.5.3.8.8.8h.8c.4,0,.8-.3.8-.8v-3.9h1.2l2.2,4.2c.1.3.4.5.7.5h.8c.4,0,.6-.2.6-.3,0-.1.2-.4,0-.7t0,0M218.6,38.8v.6c0,.3,0,.5-.3.8s-.5.3-.8.3h-1.9v-2.8h1.9c.3,0,.6,0,.8.3.2.2.3.5.3.8"/>
    <path id="path904" class="st0" d="M184.5,40.9h-.2c0,0,0,0,0,0h0c0-.1,0-.2,0-.2s0,0,0,0c-.3.2-.6.3-.9.3-.6,0-1.1-.3-1.4-.9,0,0,0-.2,0-.3v-1.4c0-.6.3-1,.9-1.4,0,0,0,0,0,0,.5-.1,1,0,1.3.2,0,0,0,0,0,0,0,0,0,0,0,0v-1.7c0,0,0,0,0,0h.4c0,0,0,0,0,0v5.4c0,0,0,0,0,0M184,38.4c0-.2,0-.5-.3-.7s-.4-.3-.7-.3-.5,0-.7.3c-.2.2-.3.4-.3.7v1.2c0,.2,0,.5.3.7.2.2.4.3.7.3s.5,0,.7-.3c.2-.2.3-.4.3-.7v-1.2Z"/>
    <path id="path906" class="st0" d="M188.3,39.2h-2.1c0,0,0,0,0,0v.2c0,.3,0,.5.3.7.2.2.4.3.7.3s.6,0,.9-.3c0,0,0,0,.1,0l.2.3s0,0,0,.1c-.4.3-1,.4-1.6.3,0,0-.2,0-.2,0-.6-.3-.8-.8-.8-1.4v-1.5c0,0,0-.2,0-.2.3-.6.8-.9,1.3-.9s.7.1,1,.4c.3.3.4.6.4,1v.8c0,0,0,0,0,0M187.8,38.3c0-.2,0-.4-.2-.6-.2-.2-.4-.2-.6-.2s-.4,0-.6.2c-.2.2-.2.4-.2.6v.3c0,0,0,0,0,0h1.5c0,0,0,0,0,0v-.3h0Z"/>
    <path class="st0" d="M216.2,24h-.5v-10.3c0-.2,0-.6.7-.6h6.8c.2,0,.2,0,.2-.2v-2.1c0-.1,0-.2-.2-.2h-6.8c-.4,0-.7-.3-.7-.7v-4.9c0-.1,0-.2-.2-.2h-2.3c-.2,0-.2.1-.2.2v4.9c0,.4-.3.7-.7.7h-2.6c-.2,0-.2,0-.2.2v2c0,.1,0,.2.2.2h2.6c.4,0,.7.2.7.6v10.3h-.5v-10.3c0,0,0-.2-.2-.2h-2.6c-.5,0-.7-.2-.7-.7v-2c0-.2,0-.6.7-.6h2.6c.2,0,.2,0,.2-.2v-4.9c0-.4.3-.7.7-.7h2.3c.4,0,.7.3.7.7v4.9c0,0,0,.2.2.2h6.8c.5,0,.7.2.7.6v2.1c0,.4-.3.7-.7.7h-6.8c-.2,0-.2,0-.2.2v10.3Z"/>
    <g>
      <path id="path912" class="st0" d="M216,18.9v5.6c0,1.4.2,2.6.6,3.5s1.3,1.4,2.8,1.4,1.3-.1,2.1-.3c.8-.2,1.8-.6,2.9-1,0,.1,0,.2,0,.3s0,.1,0,.2c-.6.6-1.7,1.2-3.4,1.8s-3.1.9-4.4.9-2.1-.3-2.9-1c-.8-.7-1.2-1.9-1.2-3.6v-6"/>
      <path class="st0" d="M216.8,31.4c-1.2,0-2.2-.4-3.1-1.1-.9-.7-1.3-2-1.3-3.8v-6.1c.1,0,.6,0,.6,0v3.7c-.1,0-.1,2.4-.1,2.4,0,1.6.4,2.8,1.1,3.4.8.6,1.7,1,2.8,1s2.7-.3,4.3-.9c1.5-.5,2.5-1.1,3.2-1.6,0,0,0,0,0,0-1,.4-1.9.7-2.7.9-.9.2-1.6.4-2.2.4-1.6,0-2.6-.5-3.1-1.5-.4-1-.6-2.2-.6-3.6v-5.6s.5,0,.5,0v5.6c0,1.3.2,2.5.5,3.4.3.8,1.2,1.2,2.6,1.2s1.2-.1,2.1-.3c.8-.2,1.8-.6,2.9-1h.2c0-.1,0,.1,0,.1,0,.1,0,.3,0,.4s0,.1,0,.2h0c0,.1,0,.2,0,.2-.6.6-1.8,1.2-3.4,1.8-1.7.6-3.2.9-4.5.9Z"/>
    </g>
    <g>
      <path id="path914" class="st0" d="M191.1,17.6v6.6c0,1.2.4,2.2,1.4,3,.9.8,2,1.2,3.3,1.2s2.4-.4,3.3-1.2c.9-.8,1.4-1.8,1.4-3v-13.4c0-.3.1-.4.4-.4h2.3c.3,0,.5.1.5.4v13.4c0,2-.8,3.7-2.3,5-1.6,1.4-3.4,2.1-5.5,2.1s-4-.7-5.6-2.1c-1.5-1.4-2.3-3.1-2.3-5v-6.6h3.2Z"/>
      <path class="st0" d="M195.8,31.6c-2.2,0-4.1-.7-5.7-2.2-1.6-1.4-2.4-3.2-2.4-5.2v-6.8h3.7v6.8c0,1.1.4,2,1.3,2.8.9.8,1.9,1.2,3.1,1.2s2.3-.4,3.1-1.2c.9-.8,1.3-1.7,1.3-2.8v-13.4c0-.3.1-.6.7-.6h2.3c.6,0,.7.4.7.6v13.4c0,2-.8,3.8-2.4,5.2-1.6,1.4-3.5,2.2-5.7,2.2ZM188.1,17.8v6.3c0,1.9.7,3.5,2.2,4.9,1.5,1.4,3.3,2.1,5.4,2.1s3.9-.7,5.4-2.1c1.5-1.3,2.3-3,2.3-4.9v-13.4c0,0,0-.2-.2-.2h-2.3c-.2,0-.2,0-.2.2v13.4c0,1.2-.5,2.3-1.5,3.2-.9.9-2.1,1.3-3.4,1.3s-2.5-.4-3.5-1.3c-1-.9-1.4-1.9-1.4-3.2v-6.3h-2.7Z"/>
    </g>
    <path class="st0" d="M191.4,17.8h-3.7v-6c-1.3,0-1.9,0-2.2.1-.2,0-.3,0-.5,0-.5,0-.9-.4-.9-1s.5-.9.9-.9.3,0,.4,0c.4,0,.9,0,2.5,0s1,0,1.5-.1c.4,0,.8,0,1,0,.4,0,.9.4.9,1v6.9ZM188.1,17.3h2.7v-6.5c0-.3-.3-.5-.4-.5s-.6,0-1,0c-.5,0-1.1.1-1.6.1-1.5,0-2.1,0-2.5,0-.2,0-.3,0-.4,0-.2,0-.4.1-.4.5s.2.5.4.5.2,0,.4,0c.4,0,1-.1,2.5-.1h.2v6Z"/>
    <path class="st0" d="M177.7,8.7c-1.8,0-3.1-1.8-3.1-3.4s1.6-3.1,3.1-3.1,3.4,1.3,3.4,3.1-1.5,3.4-3.4,3.4ZM177.7,2.6c-1.3,0-2.7,1.3-2.7,2.6s1.1,3,2.7,3,2.9-1.3,2.9-3-1.5-2.6-2.9-2.6Z"/>
    <g>
      <path id="path922" class="st0" d="M180.2,16.8v13.5c0,.3-.2.4-.4.4h-2c-.3,0-.4-.2-.4-.4v-11.6l2.9-2Z"/>
      <path class="st0" d="M179.7,31h-2c-.4,0-.7-.2-.7-.7v-11.7l3.4-2.3v14c0,.4-.3.7-.7.7ZM177.5,18.9v11.5c0,.2,0,.2.2.2h2c.2,0,.2,0,.2-.2v-13.1l-2.5,1.6Z"/>
    </g>
    <path class="st0" d="M177,19.2v-6.1h-2.2v-3.1h5.6v6.9l-3.4,2.3ZM175.3,12.7h2.2v5.6l2.5-1.6v-6.2h-4.7v2.2Z"/>
  </g>
  <g id="Calque_2">
    <path class="st0" d="M2.2,29.6C-.4,17.4,7.3,5.3,19.6,2.6c7.5-1.6,15.3.6,20.7,6-3.3,0-6.7.1-10,.7-.4,0-.7.1-1.1.2-.9.2-1.8.4-2.7.6-1.7.4-3.3.9-4.9,1.5-.3.1-.7.2-1,.4-2.5,1-4.8,2.3-7,3.8-5,3.5-9,8.3-11.4,14Z"/>
    <path class="st0" d="M42.8,25.1c2,2.2,2,5.3,1.8,6.9v.5c-.1.9-.2,2.1-.5,3.8-5.4,9.1-16.7,13.5-27.1,9.9-5.3-1.9-9.8-5.6-12.5-10.6.1-.2.3-.4.4-.5.5-.7,1.2-1.4,1.8-2l.3-.3c4.4-4.3,10.8-7.5,19-9.4,3.2-.7,6-1.1,8.4-1.1,3.8,0,6.6.9,8.3,2.8Z"/>
    <path class="st0" d="M56.9,9.6c0,2.3-1.9,4.2-4.2,4.2s-.6,0-.9-.1c-1.4-.3-2.6-1.4-3.1-2.8-.1-.4-.2-.9-.2-1.3,0-2.3,1.9-4.2,4.2-4.2s4.2,1.9,4.2,4.2h0Z"/>
    <path class="st0" d="M49.2,28.6c-.2.5-.5,1-.8,1.5-.8,1.3-1.7,2.5-2.6,3.6,0-.2.1-.7.2-1.4.4-4.1-.2-15-20.2-10.3-9.9,2.3-16,6.1-19.8,9.8l-.3.3c-.7.7-1.3,1.4-1.9,2.1-1.7,2.2-3,4.7-3.7,7.4v.2c.2-2.5.8-5,1.7-7.4.3-.8.7-1.7,1.1-2.6,2.3-5.1,5.9-9.5,10.5-12.7,2-1.4,4.2-2.6,6.5-3.5.3-.1.6-.3.9-.4,1.5-.6,3-1,4.5-1.4.8-.2,1.6-.3,2.5-.5.3,0,.7-.1,1-.2,3.2-.5,6.4-.7,9.6-.6h0c2.1.1,4.2.6,6.1,1.4,3,1.3,5.1,3.9,5.8,7.1.5,2.6.2,5.3-1,7.6h0Z"/>
  </g>
</svg>