<svg width="282" height="50" viewBox="0 0 282 50" fill="none" xmlns="http://www.w3.org/2000/svg">
<g clip-path="url(#clip0_287_4697)">
<mask id="mask0_287_4697" style="mask-type:luminance" maskUnits="userSpaceOnUse" x="0" y="0" width="282" height="50">
<path d="M281.01 0H0V50H281.01V0Z" fill="white"/>
</mask>
<g mask="url(#mask0_287_4697)">
<path d="M74.399 1.0228H78.2054V2.58332H77.151L78.0051 10.3648H79.1544V11.9254H74.9367V10.3648H76.2231L75.4639 3.09998L72.9755 11.9254H70.93L68.5892 3.16324L67.7457 10.3648H69.1164V11.9254H64.8882V10.3648H65.9532L66.8916 2.58332H65.8267V1.0228H69.7174L71.9949 9.76383L74.3779 1.0228H74.399Z" fill="white"/>
<path d="M82.1067 7.17002H80.5251C80.3669 6.86424 80.2826 6.52683 80.2826 6.16833C80.2826 5.1561 81.221 4.40747 83.256 4.40747C85.4386 4.40747 86.2084 5.05066 86.2084 7.14893V10.0064C86.2084 10.3122 86.3665 10.4387 86.6301 10.4387C86.7883 10.4387 86.9359 10.4281 87.0624 10.386V11.9149C86.7566 11.9781 86.3665 12.0097 86.008 12.0097C85.0696 12.0097 84.5846 11.5564 84.4897 10.8815C84.089 11.4825 83.2771 12.0941 82.0751 12.0941C80.7043 12.0941 79.8608 11.2928 79.8608 9.98529C79.8608 8.37204 81.2632 7.85538 83.4458 7.69722L84.3631 7.60233V6.11561C84.1206 6.05235 83.5723 6.02071 83.2455 6.02071C82.7288 6.02071 82.5179 6.0418 82.0962 6.11561V7.17002H82.1067ZM82.6761 10.6074C83.3509 10.6074 83.9835 10.2805 84.3737 9.93257V8.80435L83.4564 8.92033C82.17 9.06795 81.7904 9.32101 81.7904 9.85876C81.7904 10.3543 82.0962 10.6179 82.6761 10.6179V10.6074Z" fill="white"/>
<path d="M87.9481 10.3754H88.8971V6.13671H87.9798V4.57619H90.4998V5.45135C90.8688 4.99795 91.512 4.41803 92.9882 4.41803C94.6647 4.41803 95.4766 5.41972 95.4766 7.31765V10.3859H96.415V11.9359H92.6191V10.3859H93.6841V7.51799C93.6841 6.63229 93.3783 6.11563 92.2923 6.11563C91.6596 6.11563 91.0059 6.4214 90.6896 6.66392V10.3965H91.7229V11.9465H87.9481V10.3965V10.3754Z" fill="white"/>
<path d="M99.3252 7.17002H97.7436C97.5854 6.86424 97.5011 6.52683 97.5011 6.16833C97.5011 5.1561 98.4395 4.40747 100.474 4.40747C102.657 4.40747 103.427 5.05066 103.427 7.14893V10.0064C103.427 10.3122 103.585 10.4387 103.849 10.4387C104.007 10.4387 104.154 10.4281 104.281 10.386V11.9149C103.975 11.9781 103.585 12.0097 103.226 12.0097C102.288 12.0097 101.803 11.5564 101.708 10.8815C101.307 11.4825 100.496 12.0941 99.2935 12.0941C97.9228 12.0941 97.0793 11.2928 97.0793 9.98529C97.0793 8.37204 98.4817 7.85538 100.664 7.69722L101.582 7.60233V6.11561C101.339 6.05235 100.791 6.02071 100.464 6.02071C99.9473 6.02071 99.7364 6.0418 99.3146 6.11561V7.17002H99.3252ZM99.8946 10.6074C100.569 10.6074 101.202 10.2805 101.592 9.93257V8.80435L100.675 8.92033C99.3884 9.06795 99.0089 9.32101 99.0089 9.85876C99.0089 10.3543 99.3146 10.6179 99.8946 10.6179V10.6074Z" fill="white"/>
<path d="M111.145 5.9258C111.409 6.25266 111.567 6.83259 111.567 7.39143C111.567 9.08902 110.291 9.97472 108.467 9.97472C108.014 9.97472 107.518 9.922 107.191 9.81656L107.128 10.7972H109.585C111.113 10.7972 112.073 11.4931 112.073 12.8638C112.073 14.4981 110.618 15.5736 108.203 15.5736C105.789 15.5736 104.892 14.8039 104.892 13.6546C104.892 12.8111 105.62 12.2839 106.137 12.1679C105.747 11.9781 105.504 11.5247 105.504 11.1135C105.504 10.407 105.989 9.93255 106.411 9.61622C105.609 9.18392 105.156 8.36148 105.156 7.29653C105.156 5.62002 106.274 4.40745 108.499 4.40745C109.205 4.40745 110.027 4.64997 110.439 4.95574C110.955 4.16494 111.693 3.94351 112.474 3.98569L112.505 5.75709L111.166 5.91525L111.145 5.9258ZM106.643 13.2223C106.643 13.7917 107.012 14.1924 108.256 14.1924C109.405 14.1924 110.175 13.8339 110.175 13.159C110.175 12.7373 109.954 12.3999 109.194 12.3999H107.128C106.875 12.5897 106.643 12.8533 106.643 13.2223ZM109.869 7.32816C109.869 6.53735 109.437 5.98906 108.414 5.98906C107.328 5.98906 106.917 6.53735 106.917 7.32816C106.917 8.06625 107.275 8.61454 108.414 8.61454C109.479 8.61454 109.869 8.08733 109.869 7.32816Z" fill="white"/>
<path d="M118.937 9.87985L119.517 11.3033C118.747 11.7883 117.672 12.1046 116.712 12.1046C114.161 12.1046 113.117 10.4914 113.117 8.24551C113.117 6.14724 114.245 4.40747 116.501 4.40747C118.758 4.40747 119.601 5.99963 119.601 7.58124C119.601 7.98191 119.549 8.5302 119.475 8.83598H115.025C115.057 9.8693 115.605 10.5019 116.733 10.5019C117.503 10.5019 118.262 10.2805 118.948 9.8693L118.937 9.87985ZM117.841 7.48634C117.862 7.39144 117.862 7.30709 117.862 7.26492C117.862 6.35812 117.25 5.90473 116.501 5.90473C115.489 5.90473 115.099 6.61118 115.036 7.48634H117.841Z" fill="white"/>
<path d="M120.719 10.3754H121.668V6.13671H120.751V4.57619H123.271V5.43026C123.577 4.9136 124.283 4.41803 125.306 4.41803C126.329 4.41803 126.866 4.83979 127.256 5.48298C127.647 4.93469 128.385 4.41803 129.576 4.41803C131.242 4.41803 131.885 5.38808 131.885 7.18058V10.3859H132.824V11.9359H129.334V10.3859H130.093V7.31765C130.093 6.55848 129.829 6.10508 129.028 6.10508C128.448 6.10508 127.942 6.36868 127.689 6.65337V10.3859H128.469V11.9359H125.127V10.3859H125.917V6.80099C125.728 6.40032 125.348 6.10508 124.757 6.10508C124.125 6.10508 123.756 6.3476 123.471 6.64283V10.3859H124.23V11.9359H120.73V10.3859L120.719 10.3754Z" fill="white"/>
<path d="M139.477 9.87985L140.057 11.3033C139.287 11.7883 138.212 12.1046 137.252 12.1046C134.701 12.1046 133.657 10.4914 133.657 8.24551C133.657 6.14724 134.785 4.40747 137.041 4.40747C139.298 4.40747 140.141 5.99963 140.141 7.58124C140.141 7.98191 140.089 8.5302 140.015 8.83598H135.565C135.597 9.8693 136.145 10.5019 137.273 10.5019C138.043 10.5019 138.802 10.2805 139.488 9.8693L139.477 9.87985ZM138.38 7.48634C138.402 7.39144 138.402 7.30709 138.402 7.26492C138.402 6.35812 137.79 5.90473 137.041 5.90473C136.029 5.90473 135.639 6.61118 135.576 7.48634H138.38Z" fill="white"/>
<path d="M141.248 10.3754H142.197V6.13671H141.28V4.57619H143.8V5.45135C144.169 4.99795 144.812 4.41803 146.288 4.41803C147.965 4.41803 148.777 5.41972 148.777 7.31765V10.3859H149.715V11.9359H145.919V10.3859H146.984V7.51799C146.984 6.63229 146.679 6.11563 145.593 6.11563C144.96 6.11563 144.306 6.4214 143.99 6.66392V10.3965H145.023V11.9465H141.248V10.3965V10.3754Z" fill="white"/>
<path d="M153.174 9.55296C153.174 10.154 153.511 10.407 154.017 10.407C154.281 10.407 154.798 10.3543 155.135 10.291L155.188 11.8727C154.798 11.9992 154.007 12.0941 153.48 12.0941C151.982 12.0941 151.402 11.1135 151.402 9.80602V6.12614H150.063V4.72378L151.402 4.56562V2.76258L153.195 2.46735V4.56562H154.935V6.12614H153.195V9.54242L153.174 9.55296Z" fill="white"/>
<path d="M72.9545 25.5378V29.2282H65.3205V27.6677H66.4171V19.8861H65.3205V18.3256H69.5487V19.8861H68.3256V27.6677H71.2463V25.5378H72.9545Z" fill="white"/>
<path d="M80.873 25.5378C80.873 27.8258 79.9346 29.4074 77.3197 29.4074C74.7048 29.4074 73.8296 27.8153 73.8296 25.5694C73.8296 23.3235 74.7786 21.7103 77.383 21.7103C79.9873 21.7103 80.873 23.2919 80.873 25.5378ZM78.9857 25.5694C78.9857 24.0511 78.585 23.3762 77.3408 23.3762C76.0966 23.3762 75.7275 24.051 75.7275 25.5378C75.7275 27.0245 76.1598 27.752 77.3724 27.752C78.585 27.752 78.9857 27.0456 78.9857 25.5694Z" fill="white"/>
<path d="M87.9587 23.2286C88.2223 23.5555 88.3804 24.1354 88.3804 24.6943C88.3804 26.3918 87.1046 27.2775 85.2805 27.2775C84.8271 27.2775 84.3315 27.2248 84.0046 27.1194L83.9414 28.1H86.3981C87.927 28.1 88.8866 28.7959 88.8866 30.1666C88.8866 31.801 87.4315 32.8765 85.0169 32.8765C82.6023 32.8765 81.706 32.1067 81.706 30.9574C81.706 30.1139 82.4336 29.5867 82.9502 29.4707C82.5601 29.2809 82.3176 28.8275 82.3176 28.4163C82.3176 27.7099 82.8026 27.2354 83.2244 26.9191C82.423 26.4867 81.9696 25.6643 81.9696 24.5994C81.9696 22.9228 83.0873 21.7103 85.3121 21.7103C86.0186 21.7103 86.841 21.9528 87.2522 22.2586C87.7689 21.4678 88.507 21.2463 89.2872 21.2885L89.3189 23.0599L87.9798 23.2181L87.9587 23.2286ZM83.4564 30.5251C83.4564 31.0945 83.8254 31.4952 85.0696 31.4952C86.2189 31.4952 86.9886 31.1367 86.9886 30.4619C86.9886 30.0401 86.7672 29.7027 86.008 29.7027H83.9414C83.6883 29.8925 83.4564 30.1561 83.4564 30.5251ZM86.6828 24.631C86.6828 23.8402 86.2505 23.2919 85.2278 23.2919C84.1417 23.2919 83.7305 23.8402 83.7305 24.631C83.7305 25.3691 84.089 25.9174 85.2278 25.9174C86.2927 25.9174 86.6828 25.3902 86.6828 24.631Z" fill="white"/>
<path d="M89.8988 27.6782H91.4488V23.429H89.8988V21.8684H93.2413V27.6782H94.6752V29.2282H89.8988V27.6782ZM91.143 19.3168C91.143 18.5471 91.628 18.1991 92.2712 18.1991C92.8406 18.1991 93.3889 18.5365 93.3889 19.3168C93.3889 20.097 92.8406 20.4028 92.2712 20.4028C91.628 20.4028 91.143 20.1076 91.143 19.3168Z" fill="white"/>
<path d="M101.118 24.1565H99.6942L99.4833 23.1759C99.1881 23.0599 98.8718 22.9967 98.4711 22.9967C97.8279 22.9967 97.5327 23.3657 97.5327 23.7664C97.5327 24.1249 97.6803 24.3779 98.2075 24.5572L99.3674 24.9157C100.706 25.3374 101.381 26.0017 101.381 27.1405C101.381 28.2792 100.622 29.3969 98.334 29.3969C97.2058 29.3969 96.3517 29.2177 95.5609 28.9013L95.4344 26.8031H96.8579L97.1847 27.8997C97.48 28.0473 97.8912 28.1211 98.334 28.1211C98.9667 28.1211 99.3674 27.8469 99.3674 27.3514C99.3674 26.9929 99.1459 26.7187 98.6609 26.5606L97.4378 26.1704C96.1936 25.7803 95.5504 25.0844 95.5504 23.9773C95.5504 22.9439 96.2147 21.6997 98.4922 21.6997C99.4412 21.6997 100.506 21.8895 101.139 22.1637V24.146L101.118 24.1565Z" fill="white"/>
<path d="M105.251 26.8558C105.251 27.4568 105.588 27.7099 106.094 27.7099C106.358 27.7099 106.875 27.6571 107.212 27.5939L107.265 29.1755C106.875 29.302 106.084 29.3969 105.557 29.3969C104.059 29.3969 103.48 28.4163 103.48 27.1088V23.429H102.14V22.0266L103.48 21.8684V20.0654L105.272 19.7702V21.8684H107.012V23.429H105.272V26.8452L105.251 26.8558Z" fill="white"/>
<path d="M108.056 27.6782H109.606V23.429H108.056V21.8684H111.398V27.6782H112.832V29.2282H108.056V27.6782ZM109.3 19.3168C109.3 18.5471 109.785 18.1991 110.428 18.1991C110.997 18.1991 111.546 18.5365 111.546 19.3168C111.546 20.097 110.997 20.4028 110.428 20.4028C109.785 20.4028 109.3 20.1076 109.3 19.3168Z" fill="white"/>
<path d="M116.902 32.7183V31.1578H118.568V28.6588C118.21 29.0279 117.682 29.418 116.66 29.418C114.561 29.418 113.56 27.984 113.56 25.5799C113.56 23.1759 114.625 21.7208 116.66 21.7208C117.725 21.7208 118.357 22.1531 118.874 22.6065L119.137 21.2358H120.361V31.0945L121.31 31.3159V32.7183H116.902ZM118.568 24.0194C118.294 23.7136 117.798 23.4079 117.113 23.4079C115.795 23.4079 115.447 24.3252 115.447 25.5694C115.447 26.8136 115.806 27.7204 117.113 27.7204C117.883 27.7204 118.336 27.3935 118.568 27.1932V24.03V24.0194Z" fill="white"/>
<path d="M129.154 27.6677H130.251V29.2282H127.731V27.9418C127.341 28.585 126.508 29.3969 125 29.3969C123.418 29.3969 122.617 28.4163 122.617 26.4973V23.4289H121.552V21.879H124.41V26.2969C124.41 27.1826 124.705 27.6993 125.77 27.6993C126.413 27.6993 127.088 27.3408 127.383 26.8136V23.4289H126.023V21.879H129.154V27.6677Z" fill="white"/>
<path d="M136.873 27.1826L137.453 28.6061C136.683 29.0911 135.607 29.4074 134.648 29.4074C132.096 29.4074 131.052 27.7942 131.052 25.5483C131.052 23.45 132.181 21.7103 134.437 21.7103C136.693 21.7103 137.537 23.3024 137.537 24.884C137.537 25.2847 137.484 25.833 137.41 26.1388H132.961C132.992 27.1721 133.541 27.8047 134.669 27.8047C135.439 27.8047 136.198 27.5833 136.883 27.1721L136.873 27.1826ZM135.776 24.7891C135.797 24.6942 135.797 24.6099 135.797 24.5677C135.797 23.6609 135.186 23.2075 134.437 23.2075C133.425 23.2075 133.035 23.914 132.971 24.7891H135.776Z" fill="white"/>
<path d="M73.6925 35.6074V38.9182H72.0898V37.1784H70.213V44.96H71.6997V46.5205H66.8283V44.96H68.3467V37.1784H66.5753V38.9182H64.9937V35.6074H73.6925Z" fill="white"/>
<path d="M74.0827 39.1607H76.8136V40.7529C77.035 40.057 77.9102 38.992 78.8908 38.992C79.2282 38.992 79.6921 39.0236 80.019 39.0764L79.8714 41.143L78.5639 40.9005C77.868 40.9532 77.2564 41.3012 76.9296 41.8705V44.9705H78.5639V46.5205H74.0827V45.1181L75.1476 44.8229V40.7212H74.0827V39.1607Z" fill="white"/>
<path d="M82.8764 41.7546H81.2948C81.1366 41.4488 81.0523 41.1114 81.0523 40.7529C81.0523 39.7406 81.9907 38.992 84.0257 38.992C86.2083 38.992 86.9781 39.6352 86.9781 41.7335V44.5909C86.9781 44.8967 87.1362 45.0232 87.3998 45.0232C87.558 45.0232 87.7056 45.0127 87.8321 44.9705V46.4994C87.5264 46.5626 87.1362 46.5943 86.7777 46.5943C85.8393 46.5943 85.3543 46.1409 85.2594 45.4661C84.8587 46.0671 84.0468 46.6786 82.8448 46.6786C81.4741 46.6786 80.6305 45.8773 80.6305 44.5698C80.6305 42.9566 82.0329 42.4399 84.2155 42.2818L85.1328 42.1869V40.7001C84.8903 40.6369 84.342 40.6052 84.0152 40.6052C83.4985 40.6052 83.2876 40.6263 82.8659 40.7001V41.7546H82.8764ZM83.4458 45.1919C84.1206 45.1919 84.7533 44.8651 85.1434 44.5171V43.3889L84.2261 43.5049C82.9397 43.6525 82.5601 43.9055 82.5601 44.4433C82.5601 44.9389 82.8659 45.2025 83.4458 45.2025V45.1919Z" fill="white"/>
<path d="M88.7284 44.96H89.6774V40.7212H88.76V39.1607H91.2801V40.0359C91.6491 39.5825 92.2923 39.0026 93.7685 39.0026C95.445 39.0026 96.2569 40.0043 96.2569 41.9022V44.9705H97.1953V46.5205H93.3994V44.9705H94.4644V42.1025C94.4644 41.2168 94.1586 40.7002 93.0725 40.7002C92.4399 40.7002 91.7862 41.0059 91.4698 41.2484V44.9811H92.5032V46.531H88.7284V44.9811V44.96Z" fill="white"/>
<path d="M103.69 41.4488H102.267L102.056 40.4682C101.761 40.3522 101.445 40.2889 101.044 40.2889C100.401 40.2889 100.105 40.658 100.105 41.0586C100.105 41.4171 100.253 41.6702 100.78 41.8494L101.94 42.2079C103.279 42.6297 103.954 43.294 103.954 44.4327C103.954 45.5715 103.195 46.6892 100.907 46.6892C99.7786 46.6892 98.9245 46.5099 98.1337 46.1936L98.0072 44.0953H99.4306L99.7575 45.1919C100.053 45.3395 100.464 45.4133 100.907 45.4133C101.539 45.4133 101.94 45.1392 101.94 44.6436C101.94 44.2851 101.719 44.011 101.234 43.8528L100.011 43.4627C98.7663 43.0726 98.1231 42.3767 98.1231 41.2695C98.1231 40.2362 98.7874 38.992 101.065 38.992C102.014 38.992 103.079 39.1818 103.712 39.4559V41.4382L103.69 41.4488Z" fill="white"/>
<path d="M104.998 50V48.5344L105.841 48.313V40.7318H104.787V39.1713H107.486V39.9937C107.855 39.5087 108.393 39.0131 109.521 39.0131C111.556 39.0131 112.621 40.4155 112.621 42.8722C112.621 45.329 111.62 46.7103 109.521 46.7103C108.52 46.7103 107.971 46.3201 107.634 45.9511V48.45H109.205V50.0106H105.008L104.998 50ZM109.068 40.6896C108.393 40.6896 107.908 40.9954 107.634 41.3012V44.4644C107.855 44.6753 108.298 44.9916 109.068 44.9916C110.375 44.9916 110.734 44.0848 110.734 42.8406C110.734 41.5964 110.396 40.6791 109.068 40.6791V40.6896Z" fill="white"/>
<path d="M120.73 42.8195C120.73 45.1076 119.791 46.6892 117.176 46.6892C114.561 46.6892 113.686 45.097 113.686 42.8511C113.686 40.6052 114.635 38.992 117.24 38.992C119.844 38.992 120.73 40.5736 120.73 42.8195ZM118.842 42.8511C118.842 41.3328 118.442 40.658 117.197 40.658C115.953 40.658 115.584 41.3328 115.584 42.8195C115.584 44.3062 116.016 45.0338 117.229 45.0338C118.442 45.0338 118.842 44.3273 118.842 42.8511Z" fill="white"/>
<path d="M121.816 39.1607H124.547V40.7529C124.768 40.057 125.643 38.992 126.624 38.992C126.961 38.992 127.425 39.0236 127.752 39.0764L127.604 41.143L126.297 40.9005C125.601 40.9532 124.989 41.3012 124.663 41.8705V44.9705H126.297V46.5205H121.816V45.1181L122.881 44.8229V40.7212H121.816V39.1607Z" fill="white"/>
<path d="M131.274 44.1375C131.274 44.7385 131.611 44.9916 132.117 44.9916C132.381 44.9916 132.898 44.9389 133.235 44.8756L133.288 46.4572C132.898 46.5838 132.107 46.6787 131.58 46.6787C130.082 46.6787 129.502 45.6981 129.502 44.3906V40.7107H128.163V39.3083L129.502 39.1502V37.3471L131.295 37.0519V39.1502H133.035V40.7107H131.295V44.127L131.274 44.1375Z" fill="white"/>
<path d="M139.814 41.4488H138.391L138.18 40.4682C137.885 40.3522 137.569 40.2889 137.168 40.2889C136.525 40.2889 136.229 40.658 136.229 41.0586C136.229 41.4171 136.377 41.6702 136.904 41.8494L138.064 42.2079C139.403 42.6297 140.078 43.294 140.078 44.4327C140.078 45.5715 139.319 46.6892 137.031 46.6892C135.903 46.6892 135.049 46.5099 134.258 46.1936L134.131 44.0953H135.555L135.881 45.1919C136.177 45.3395 136.588 45.4133 137.031 45.4133C137.663 45.4133 138.064 45.1392 138.064 44.6436C138.064 44.2851 137.843 44.011 137.358 43.8528L136.135 43.4627C134.89 43.0726 134.247 42.3767 134.247 41.2695C134.247 40.2362 134.911 38.992 137.189 38.992C138.138 38.992 139.203 39.1818 139.836 39.4559V41.4382L139.814 41.4488Z" fill="white"/>
<path d="M2.30916 28.7326C-0.453383 16.0797 7.57066 3.57445 20.2235 0.8119C27.9418 -0.875152 35.9869 1.44455 41.6385 6.96964C38.1801 6.87474 34.7322 7.10671 31.3159 7.64446C30.9258 7.64446 30.5673 7.76045 30.1877 7.83425C29.2176 8.02405 28.3214 8.21384 27.383 8.42472C25.6748 8.8254 23.9983 9.34206 22.3534 9.95361C22.0055 10.0591 21.6786 10.2067 21.3517 10.3754C18.7895 11.3771 16.3539 12.7056 14.1291 14.3189C8.94138 17.946 4.85028 22.9334 2.30916 28.7326Z" fill="white"/>
<path d="M47.4272 31.4108C43.1674 43.6525 29.787 50.116 17.5348 45.8562C11.472 43.7474 6.54786 39.2451 3.89075 33.4036C4.50231 32.6234 5.15604 31.8748 5.85195 31.1683L6.13664 30.8836C9.99577 27.0561 16.259 23.1232 26.5605 20.7613C47.248 15.9321 47.849 27.1932 47.4167 31.4108H47.4272Z" fill="white"/>
<path d="M58.8148 7.98187C58.8148 10.3754 56.8747 12.3155 54.4812 12.3155C54.1755 12.3155 53.8697 12.2839 53.5744 12.21C52.0877 11.8726 50.8857 10.776 50.4112 9.32097C50.2741 8.88866 50.2003 8.43526 50.1898 7.98187C50.1898 5.58836 52.1299 3.64825 54.5234 3.64825C56.9169 3.64825 58.857 5.58836 58.857 7.98187H58.8148Z" fill="white"/>
<path d="M50.833 27.6255C50.5799 28.1527 50.2952 28.6588 49.9789 29.1438C49.1459 30.4407 48.2391 31.685 47.248 32.8764C47.248 32.7077 47.3956 32.1805 47.48 31.4319C47.9123 27.2143 47.2902 15.9532 26.6132 20.7929C16.3644 23.197 10.0485 27.1194 6.18937 30.9152L5.90468 31.1999C5.19823 31.8958 4.52341 32.6339 3.89076 33.4142C2.10881 35.6495 0.811894 38.2434 0.105441 41.0165L0 41.2168C0.326866 38.6124 0.938423 36.0502 1.82412 33.5829C2.16154 32.7288 2.49895 31.8326 2.92071 30.9047C5.25095 25.6221 8.98355 21.0776 13.7178 17.7668C15.7739 16.2695 18.0198 15.0464 20.3922 14.1291C20.6875 13.9814 21.0038 13.8549 21.3201 13.7495C22.8279 13.1801 24.3779 12.6951 25.949 12.3049C26.803 12.1046 27.6255 11.9464 28.5217 11.7672C28.8697 11.6934 29.1965 11.6407 29.5445 11.5985C32.8237 11.0818 36.1451 10.8815 39.4559 10.9869H39.5403C41.7229 11.0924 43.8739 11.5774 45.8878 12.4315C48.9561 13.76 51.1915 16.5015 51.8768 19.7701C52.4251 22.4273 52.0666 25.2003 50.833 27.6149V27.6255Z" fill="white"/>
<path d="M207.009 40.615C207.481 39.973 207.718 39.2307 207.718 38.3881C207.718 37.4251 207.363 36.6026 206.694 35.9004C206.044 35.2183 205.217 34.8572 204.252 34.8572H200.845C200.373 34.8572 200.038 35.1982 200.038 35.6797V46.8542C200.038 47.3357 200.373 47.6768 200.845 47.6768H204.646C205.63 47.6768 206.497 47.3156 207.206 46.5934C207.914 45.8712 208.289 44.9885 208.289 43.9854V43.4838C208.289 42.7616 208.092 42.0594 207.698 41.4375C207.501 41.1366 207.265 40.8557 207.009 40.615ZM204.98 39.3109C204.764 39.5316 204.468 39.652 204.094 39.652H202.48V37.3248H204.272C204.587 37.3248 204.803 37.405 205.02 37.6257C205.236 37.8464 205.335 38.0671 205.335 38.3881C205.315 38.7693 205.217 39.0501 204.98 39.3109ZM202.46 42.0995H204.488C204.862 42.0995 205.177 42.24 205.453 42.5008C205.729 42.7816 205.867 43.1227 205.867 43.5039V44.0054C205.867 44.3264 205.748 44.6073 205.512 44.8681C205.276 45.1088 205 45.2292 204.646 45.2292H202.46V42.0995Z" fill="white"/>
<path d="M214.531 34.6967C213.369 34.6967 212.345 35.118 211.518 35.9606C210.691 36.8032 210.277 37.8263 210.277 39.03V43.5841C210.277 44.7677 210.691 45.811 211.518 46.6536C212.345 47.4962 213.349 47.9175 214.531 47.9175C215.712 47.9175 216.717 47.4962 217.544 46.6536C218.371 45.811 218.784 44.7878 218.784 43.5841V39.03C218.784 37.8464 218.371 36.8032 217.544 35.9606C216.717 35.118 215.712 34.6967 214.531 34.6967ZM212.699 39.01C212.699 38.4884 212.877 38.047 213.251 37.6859C213.605 37.3248 214.038 37.1442 214.55 37.1442C215.062 37.1442 215.496 37.3248 215.85 37.6859C216.224 38.0671 216.401 38.4884 216.401 39.01V43.564C216.401 44.1057 216.224 44.5069 215.85 44.8881C215.476 45.2693 215.062 45.4499 214.55 45.4499C214.038 45.4499 213.625 45.2693 213.251 44.8881C212.877 44.527 212.719 44.1057 212.719 43.5841L212.699 39.01Z" fill="white"/>
<path d="M235.837 34.8572H233.12C232.647 34.8572 232.312 35.1982 232.312 35.6797V46.8542C232.312 47.3357 232.647 47.6768 233.12 47.6768H236.231C237.373 47.6768 238.358 47.2555 239.165 46.4329C239.972 45.6104 240.386 44.6073 240.386 43.4437V39.4514C240.386 38.1875 239.933 37.0841 239.047 36.1813C238.161 35.3186 237.097 34.8572 235.837 34.8572ZM236.251 45.2292H234.734V37.3248H235.837C236.428 37.3248 236.92 37.5254 237.334 37.9668C237.767 38.4081 237.964 38.9097 237.964 39.4915V43.4638C237.964 43.9653 237.806 44.3465 237.452 44.7076C237.117 45.0486 236.723 45.2292 236.251 45.2292Z" fill="white"/>
<path d="M249.365 45.2292H245.368V42.0794H248.696C249.149 42.0794 249.483 41.7183 249.483 41.2569V40.4544C249.483 39.9729 249.149 39.6319 248.696 39.6319H245.368V37.3248H249.267C249.72 37.3248 250.074 36.9636 250.074 36.5022V35.6997C250.074 35.2183 249.739 34.8772 249.267 34.8772H243.773C243.3 34.8772 242.965 35.2183 242.965 35.6997V46.8742C242.965 47.3557 243.3 47.6968 243.773 47.6968H249.365C249.838 47.6968 250.172 47.3557 250.172 46.8742V46.0718C250.172 45.5702 249.838 45.2292 249.365 45.2292Z" fill="white"/>
<path d="M258.364 35.439C258.246 35.0779 257.951 34.8572 257.596 34.8572H256.139C255.785 34.8572 255.489 35.0779 255.371 35.439L252.043 46.5132C252.004 46.6135 251.984 46.7138 251.984 46.8342C251.984 47.3156 252.319 47.6567 252.791 47.6567H253.618C253.993 47.6567 254.308 47.416 254.386 47.0749L255.371 43.8249H258.364L259.349 47.095L259.368 47.1351C259.506 47.4561 259.782 47.6567 260.136 47.6567H260.963C261.416 47.6567 261.771 47.2956 261.771 46.8342C261.771 46.7138 261.751 46.6135 261.712 46.5332L258.364 35.439ZM257.773 41.3773H255.981L256.868 38.3078L257.773 41.3773Z" fill="white"/>
<path d="M270.75 34.8572H269.963C269.49 34.8572 269.155 35.1982 269.155 35.6797V43.8249C269.155 44.2863 269.017 44.6474 268.702 44.9483C268.387 45.2693 268.033 45.4298 267.6 45.4298C267.166 45.4298 266.812 45.2693 266.477 44.9483C266.182 44.6474 266.024 44.2662 266.024 43.8249V35.6797C266.024 35.1982 265.689 34.8572 265.217 34.8572H264.429C263.957 34.8572 263.622 35.1982 263.622 35.6797V43.8249C263.622 44.9483 264.016 45.9113 264.784 46.6937C265.552 47.4761 266.516 47.8774 267.6 47.8774C268.702 47.8774 269.647 47.4761 270.415 46.6737C271.183 45.8712 271.558 44.9082 271.558 43.8048V35.6597C271.558 35.1982 271.223 34.8572 270.75 34.8572Z" fill="white"/>
<path d="M279.099 41.2369L281.915 36.0007L281.974 35.8603C282.053 35.5192 281.935 35.2785 281.836 35.138C281.758 35.0177 281.541 34.8371 281.206 34.8371H280.399C280.064 34.8371 279.788 35.0177 279.67 35.2985L277.8 38.7893L275.929 35.3186C275.811 35.0177 275.535 34.8371 275.2 34.8371H274.393C274.039 34.8371 273.842 35.0177 273.763 35.138C273.664 35.2785 273.546 35.5192 273.625 35.8803L273.684 36.0208L276.48 41.2369L273.684 46.4329L273.645 46.5332C273.527 46.9144 273.664 47.1752 273.743 47.2956C273.822 47.4159 274.039 47.6166 274.393 47.6166H275.22C275.535 47.6166 275.811 47.436 275.949 47.1351L277.8 43.6844L279.631 47.115C279.769 47.4159 280.044 47.6166 280.36 47.6166H281.187C281.561 47.6166 281.758 47.4159 281.836 47.2956C281.935 47.1752 282.053 46.9144 281.935 46.5131L279.099 41.2369Z" fill="white"/>
<path d="M229.674 46.5332L227.488 42.2801C227.763 42.1196 228.019 41.9189 228.256 41.6782C228.945 40.976 229.299 40.1134 229.299 39.1303V38.4883C229.299 37.4852 228.945 36.6226 228.256 35.9204C227.567 35.2182 226.74 34.8772 225.755 34.8772H222.21C221.738 34.8772 221.403 35.2183 221.403 35.6997V46.8742C221.403 47.3557 221.738 47.6968 222.21 47.6968H222.998C223.451 47.6968 223.806 47.3357 223.806 46.8742V42.7415H225.085L227.35 47.1551C227.488 47.4761 227.763 47.6567 228.079 47.6567H228.906C229.28 47.6567 229.477 47.456 229.555 47.3357C229.654 47.2153 229.772 46.9545 229.654 46.5733C229.674 46.5532 229.674 46.5532 229.674 46.5332ZM226.877 38.4883V39.1303C226.877 39.4513 226.779 39.6921 226.543 39.9328C226.306 40.1735 226.07 40.2739 225.755 40.2739H223.825V37.3248H225.755C226.07 37.3248 226.326 37.4251 226.543 37.6457C226.779 37.9066 226.877 38.1473 226.877 38.4883Z" fill="white"/>
<path d="M191.846 40.6952H191.59C191.531 40.6952 191.511 40.6551 191.511 40.615V40.5347C191.511 40.4746 191.472 40.4545 191.433 40.4545C191.413 40.4545 191.393 40.4545 191.393 40.4746C191.098 40.7153 190.783 40.8156 190.448 40.8156C189.838 40.8156 189.365 40.4946 189.011 39.8526C188.971 39.7724 188.932 39.6721 188.932 39.5718V38.0671C188.932 37.4653 189.227 37.0038 189.818 36.6427C189.838 36.6227 189.857 36.6227 189.877 36.6227C190.389 36.4822 190.862 36.5224 191.236 36.7832C191.255 36.7832 191.275 36.8032 191.295 36.8032C191.354 36.8032 191.374 36.7832 191.374 36.723V34.9776C191.374 34.9174 191.413 34.8973 191.452 34.8973H191.866C191.925 34.8973 191.945 34.9174 191.945 34.9776V40.615C191.925 40.6752 191.905 40.6952 191.846 40.6952ZM191.334 38.0471C191.334 37.7863 191.255 37.5656 191.059 37.365C190.862 37.1643 190.645 37.0841 190.389 37.0841C190.133 37.0841 189.897 37.1643 189.719 37.365C189.542 37.5455 189.444 37.7662 189.444 38.0471V39.2708C189.444 39.5316 189.542 39.7523 189.719 39.9529C189.897 40.1335 190.133 40.2338 190.389 40.2338C190.645 40.2338 190.862 40.1335 191.059 39.9529C191.255 39.7523 191.334 39.5316 191.334 39.2708V38.0471Z" fill="white"/>
<path d="M195.706 38.9298H193.559C193.5 38.9298 193.481 38.9699 193.481 39.01V39.2507C193.481 39.5316 193.579 39.7523 193.756 39.9328C193.953 40.1335 194.17 40.2137 194.426 40.2137C194.761 40.2137 195.056 40.1134 195.332 39.9328C195.371 39.8927 195.41 39.9128 195.45 39.9529L195.686 40.294C195.725 40.3341 195.706 40.3742 195.666 40.4143C195.213 40.7554 194.662 40.8758 194.052 40.7754C193.953 40.7554 193.874 40.7353 193.796 40.6751C193.225 40.314 192.929 39.8526 192.929 39.2507V37.6458C192.929 37.5655 192.949 37.4853 192.988 37.4251C193.323 36.8232 193.796 36.5023 194.367 36.5023C194.761 36.5023 195.115 36.6427 195.391 36.9436C195.666 37.2445 195.804 37.5655 195.804 37.9668V38.8294C195.784 38.8896 195.765 38.9298 195.706 38.9298ZM195.213 37.9868C195.213 37.7461 195.135 37.5455 194.957 37.3649C194.78 37.1844 194.583 37.1041 194.347 37.1041C194.111 37.1041 193.914 37.1844 193.737 37.3649C193.559 37.5455 193.481 37.7461 193.481 37.9868V38.2677C193.481 38.3279 193.52 38.348 193.559 38.348H195.115C195.174 38.348 195.194 38.3078 195.194 38.2677V37.9868H195.213Z" fill="white"/>
<path d="M223.953 12.107C223.953 11.9042 224.015 11.7155 224.174 11.587C224.321 11.4679 224.511 11.4348 224.692 11.4348H231.643C231.782 11.4348 231.831 11.3995 231.848 11.3829C231.864 11.3662 231.889 11.3259 231.889 11.2242V9.05753C231.889 9.00029 231.882 8.96651 231.876 8.94781C231.87 8.93207 231.866 8.92778 231.863 8.92567C231.853 8.91681 231.804 8.88708 231.643 8.88708H224.692C224.489 8.88708 224.299 8.82837 224.159 8.69351C224.016 8.55704 223.953 8.37027 223.953 8.17472V2.99878C223.953 2.8994 223.925 2.859 223.906 2.84048C223.882 2.81855 223.827 2.78818 223.707 2.78817H221.384C221.271 2.78817 221.215 2.81975 221.188 2.84538C221.163 2.86941 221.137 2.91353 221.137 2.99878V8.15474C221.137 8.35626 221.076 8.54656 220.929 8.68352C220.785 8.81705 220.594 8.86688 220.399 8.8669H217.76C217.607 8.8669 217.556 8.89882 217.543 8.9102C217.538 8.91459 217.514 8.93621 217.514 9.03754V11.184C217.514 11.3 217.541 11.3361 217.552 11.3476C217.566 11.3609 217.614 11.3948 217.76 11.3948H220.399C220.587 11.3948 220.775 11.436 220.92 11.5572C221.072 11.6854 221.137 11.8693 221.137 12.0668V22.9202H220.645V12.0668C220.645 11.9834 220.621 11.9566 220.607 11.9444C220.584 11.9252 220.526 11.8964 220.399 11.8964H217.76C217.552 11.8964 217.354 11.8499 217.21 11.7077C217.064 11.5637 217.022 11.3689 217.022 11.184V9.03754C217.022 8.85802 217.067 8.6689 217.219 8.53286C217.364 8.40377 217.559 8.36535 217.76 8.36535H220.399C220.518 8.36534 220.574 8.33497 220.597 8.31304C220.617 8.29451 220.645 8.25412 220.645 8.15474V2.99878C220.645 2.80325 220.708 2.61664 220.85 2.48019C220.991 2.34532 221.181 2.28662 221.384 2.28662H223.707C223.903 2.28663 224.094 2.33646 224.237 2.47C224.385 2.60695 224.446 2.79731 224.446 2.99878V8.17472C224.446 8.26004 224.471 8.30429 224.496 8.32832C224.523 8.35393 224.579 8.38553 224.692 8.38553H231.643C231.836 8.38553 232.033 8.4159 232.181 8.54246C232.339 8.67853 232.381 8.87287 232.381 9.05753V11.2242C232.381 11.4033 232.337 11.5936 232.196 11.7375C232.055 11.8813 231.858 11.9363 231.643 11.9363H224.692C224.557 11.9363 224.501 11.9635 224.48 11.9798C224.472 11.9868 224.446 12.009 224.446 12.107V22.9604H223.953V12.107Z" fill="white"/>
<path d="M224.219 17.5839L224.239 23.5021C224.199 24.9667 224.396 26.1904 224.79 27.1534C225.184 28.1164 226.168 28.5979 227.704 28.5979C228.295 28.5979 229.024 28.4775 229.89 28.2368C230.757 27.996 231.761 27.6349 232.883 27.1534C232.923 27.2738 232.942 27.3741 232.942 27.4543C232.942 27.5145 232.962 27.5948 232.982 27.675C232.352 28.2969 231.21 28.9189 229.536 29.5207C227.862 30.1226 226.365 30.4436 225.007 30.4436C223.845 30.4436 222.841 30.0825 222.014 29.3602C221.187 28.638 220.773 27.3741 220.773 25.5886V23.1009L220.911 19.249" fill="white"/>
<path d="M224.485 23.5013V23.509C224.446 24.9485 224.64 26.135 225.017 27.0569C225.354 27.8811 226.209 28.3472 227.705 28.3472C228.265 28.3472 228.97 28.2323 229.825 27.9947C230.679 27.7576 231.673 27.4006 232.788 26.9223L233.033 26.8172L233.117 27.0741C233.16 27.207 233.189 27.3362 233.189 27.4544C233.189 27.4765 233.198 27.522 233.221 27.6142L233.255 27.7545L233.153 27.8552C232.484 28.516 231.3 29.1524 229.618 29.7572C227.928 30.3648 226.403 30.6943 225.007 30.6943C223.791 30.6943 222.729 30.3149 221.853 29.5507C220.946 28.758 220.527 27.4029 220.527 25.5886V23.0964L220.527 23.0917L220.665 19.2399L221.157 19.2582L221.019 23.1046V25.5886C221.019 27.3453 221.427 28.518 222.174 29.1698C222.953 29.85 223.899 30.1927 225.007 30.1927C226.328 30.1927 227.796 29.8803 229.454 29.2842C231.03 28.7176 232.099 28.143 232.71 27.589C232.705 27.5607 232.701 27.5316 232.699 27.503C231.681 27.9289 230.761 28.2546 229.955 28.4786C229.077 28.7225 228.325 28.8487 227.705 28.8487C226.128 28.8487 225.013 28.3516 224.563 27.2498C224.153 26.2475 223.953 24.9891 223.993 23.5029L223.973 17.5846L224.465 17.5831L224.485 23.5013Z" fill="white"/>
<path d="M198.62 16.2397V23.141C198.62 24.3648 199.073 25.408 200.018 26.2907C200.963 27.1734 202.046 27.5947 203.405 27.5947C204.724 27.5947 205.847 27.1734 206.753 26.2907C207.698 25.408 208.19 24.3648 208.19 23.141V9.09763C208.19 8.7967 208.328 8.67633 208.643 8.67633H210.986C211.301 8.67633 211.479 8.7967 211.479 9.09763V23.141C211.479 25.2074 210.671 26.9728 209.076 28.4373C207.481 29.9019 205.591 30.6642 203.385 30.6642C201.18 30.6642 199.231 29.9019 197.655 28.4373C196.08 26.9728 195.312 25.2074 195.312 23.141V16.2397H198.62Z" fill="white"/>
<path d="M198.374 23.1409V16.4905H195.558V23.1409C195.558 25.1344 196.295 26.8334 197.821 28.252C199.35 29.6732 201.24 30.4133 203.385 30.4133C205.529 30.4133 207.361 29.6746 208.912 28.251C210.459 26.8303 211.232 25.1308 211.232 23.1409V9.09753C211.232 8.99969 211.206 8.97753 211.198 8.97058C211.177 8.95425 211.121 8.92709 210.986 8.92709H208.643C208.507 8.92709 208.469 8.95491 208.463 8.96059C208.461 8.96244 208.456 8.96772 208.45 8.98547C208.443 9.00567 208.436 9.04065 208.436 9.09753V23.1409C208.436 24.4435 207.908 25.5515 206.919 26.4756C205.963 27.4051 204.779 27.8455 203.405 27.8455C201.988 27.8454 200.845 27.4028 199.852 26.4756C198.858 25.5474 198.374 24.4379 198.374 23.1409ZM211.725 23.1409C211.725 25.2837 210.884 27.1153 209.241 28.6236C207.602 30.1291 205.653 30.9149 203.385 30.9149C201.12 30.9149 199.111 30.1305 197.489 28.6227C195.865 27.1122 195.066 25.2801 195.066 23.1409V15.9889H198.866V23.1409C198.866 24.2914 199.288 25.2686 200.185 26.1059C201.082 26.9441 202.105 27.3439 203.405 27.3439C204.668 27.3439 205.727 26.9428 206.583 26.1094L206.584 26.1077L206.586 26.1059C207.487 25.2646 207.944 24.2858 207.944 23.1409V9.09753C207.944 8.9131 207.986 8.72317 208.134 8.58776C208.275 8.45804 208.464 8.42554 208.643 8.42554H210.986C211.167 8.42554 211.357 8.45867 211.504 8.57776C211.663 8.70627 211.725 8.8948 211.725 9.09753V23.1409Z" fill="white"/>
<path d="M198.374 9.21808C198.374 8.8751 198.11 8.68636 197.931 8.68636C197.712 8.68638 197.264 8.73893 196.751 8.79529C196.253 8.85008 195.702 8.90697 195.312 8.90697C194.167 8.90697 193.533 8.88692 193.124 8.86661C192.705 8.84577 192.548 8.82684 192.319 8.82684C192.187 8.82685 192.073 8.87257 191.993 8.94909C191.916 9.02298 191.856 9.14047 191.856 9.31839C191.856 9.66573 192.085 9.84988 192.319 9.84992C192.42 9.84992 192.511 9.84031 192.632 9.82386C192.752 9.80755 192.903 9.78416 193.109 9.76117C193.524 9.71478 194.163 9.66948 195.312 9.66948H195.558V15.989H198.374V9.21808ZM198.866 16.4905H195.066V10.1722C194.085 10.1782 193.526 10.2192 193.163 10.2598C192.965 10.2819 192.826 10.3036 192.697 10.3211C192.569 10.3385 192.453 10.3515 192.319 10.3515C191.804 10.3514 191.364 9.93386 191.364 9.31839C191.364 9.01489 191.471 8.76117 191.655 8.58429C191.836 8.41007 192.076 8.32531 192.319 8.32529C192.562 8.32529 192.76 8.34637 193.148 8.36565C193.547 8.38546 194.173 8.40542 195.312 8.40542C195.67 8.40542 196.193 8.35223 196.698 8.29668C197.189 8.24272 197.677 8.18483 197.931 8.18481C198.382 8.18481 198.866 8.5981 198.866 9.21808V16.4905Z" fill="white"/>
<path d="M187.78 3.29964C187.78 2.54297 187.413 1.85021 186.847 1.34106C186.279 0.831048 185.529 0.521141 184.797 0.521141C184.128 0.521167 183.444 0.859742 182.923 1.39062C182.402 1.9215 182.069 2.61812 182.069 3.29964C182.069 4.03884 182.361 4.81998 182.855 5.41477C183.348 6.00779 184.027 6.39922 184.797 6.39925C186.506 6.39925 187.78 5.05299 187.78 3.29964ZM188.272 3.29964C188.272 5.31794 186.789 6.9008 184.797 6.9008C183.853 6.90077 183.045 6.41969 182.479 5.73881C181.915 5.05967 181.577 4.16539 181.577 3.29964C181.577 2.45651 181.983 1.63859 182.575 1.03601C183.166 0.433431 183.969 0.0196179 184.797 0.0195923C185.659 0.0195923 186.524 0.381721 187.172 0.96509C187.822 1.54928 188.272 2.3712 188.272 3.29964Z" fill="white"/>
<path d="M187.376 15.4371V29.641C187.376 29.9419 187.219 30.1024 186.923 30.1024H184.816C184.482 30.1024 184.363 29.9419 184.363 29.641V17.4835L187.376 15.4371Z" fill="white"/>
<path d="M187.13 15.9056L184.61 17.6176V29.641C184.61 29.7657 184.635 29.8037 184.644 29.8132C184.65 29.8194 184.683 29.8516 184.816 29.8516H186.923C187.029 29.8516 187.071 29.8236 187.087 29.8074C187.102 29.7911 187.13 29.7487 187.13 29.641V15.9056ZM187.622 29.641C187.622 29.8342 187.571 30.0227 187.435 30.162C187.298 30.3012 187.113 30.3532 186.923 30.3532H184.816C184.615 30.3532 184.422 30.3052 184.285 30.1559C184.151 30.01 184.117 29.8173 184.117 29.641V17.3494L187.622 14.9686V29.641Z" fill="white"/>
<path d="M187.622 8.32526V15.5715L184.117 17.9521V11.5953H181.833V8.32526H187.622ZM182.325 11.0938H184.609V17.015L187.13 15.3029V8.8268H182.325V11.0938Z" fill="white"/>
<path d="M145.803 50C145.67 50 145.523 49.9732 145.404 49.8931C145.017 49.6657 144.884 49.1842 145.11 48.7964L174.119 -1.59483C174.347 -1.98266 174.826 -2.11639 175.213 -1.88904C175.599 -1.6617 175.733 -1.18025 175.506 -0.792421L146.497 49.5988C146.349 49.8529 146.084 50 145.803 50Z" fill="white"/>
</g>
</g>
<defs>
<clipPath id="clip0_287_4697">
<rect width="282" height="50" fill="white"/>
</clipPath>
</defs>
</svg>
